/* XPM */
static char *_54ae2e6b958498fcf2d0414f80f6f06[] = {
/* columns rows colors chars-per-pixel */
"64 64 15 1 ",
"  c black",
". c #111111",
"X c #222222",
"o c gray20",
"O c #444444",
"+ c #555555",
"@ c gray40",
"# c #777777",
"$ c #888888",
"% c gray60",
"& c #AAAAAA",
"* c #BBBBBB",
"= c gray80",
"- c #DDDDDD",
"; c #EEEEEE",
/* pixels */
"#$+@#$#%#&#*&%#$&&$o$%&**%&%&#&**&#&%&%**&%$o$&&$#%&*#&#%#$#@+$#",
"#$$$#%$#%%#$*$$$%%#O$&*==&&&&%&&&&%&&&&==*&$O#%%$$$*$#%%#$%#$$$#",
"$$$$%%$#&$@=$##@##$#@*&&&%%$=&%&&%&=$%%&&&*@#$##@##$=@$&#$%%$$$$",
"%%@$&&%$%##*@@####%#@##&%&$%&$@##@$&%$&%&##@#%####@@*##%$%&&$@%%",
"#%$$@&$$#@$#$&$$$$#@@#O@@@%@@#$@@$#@@%@@@O#@@#$$$$&$#$@#$$&@$$%#",
"%##$+$$#+###%%%$#+#+#$#++#@$@+####+@$@#++#$#+#+#$%%%###+#$$+$##%",
"%$$%##O###$%%$@#+#%##%&$#%$$$@@$$@@$$$%#$&%##%#+#@$%%$###O##%$$%",
"%@&@@#@$$%$%#@$++$%$#@+%%%&&%%$%%$%%&&%%%+@#$%$++$@#%$%$$@#@@&@%",
"&%#%$$%@&&#@@#$@#$%%$$@@%&*%@$#%%#$@%*&%@@$$%%$#@$#@@#&&@%$$%#%&",
"#&@#@%@+&$#@###$$$*&&%$$%%&%%%$##$%%%&%%$$%&&*$$$###@#$&+@%@#@&#",
"$%##@%$#@=@@@=$#$%%&&%%%#$&$*#$%%$#*$&$#%%%&&%%$#$=@@@=@#$%@##%$",
"#$@##$OO#%$$$@$$$*$*$&%$#*=$$&*$$*&$$=*#$%&$*$*$$$@$$$%#OO$##@$#",
"$@+@%$@#+$$*$$$$$#%%@&#+&&*$*%$##$%*$*&&+#&@%%#$$$$$*$$+#@$%@+@$",
"$$$++#+#$#$$$$$$$#%*%*#$$%&&%&%##%&%&&%$$#*%*%#$$$$$$$#$#+#++$$$",
"%%###@+####%$$%@#@$*=#&#&#$;&&#$$#&&;$#&#&#=*$@#@%$$%####+@###%%",
"$%@#&$%$#@+##$@$$+*$%&%&%$%&&$%##%$&&%$%&%&%$*+$$@$##+@#$%$&#@%$",
"@%#$$$%#@@O%#%&$@+$=%&%$&%*-*#@OO@#*-*%&$%&%=$+@$&%#%O@@#%$$$#%@",
"*+*=@%#$$@o#&**&#$#*$%%&&*&&&$OOOO$&&&*&&%%$*#$#&**&#o@$$#%@=*+*",
"&#%$$#@@#%#O@*&&&##%&&$&$%#=%@XOOX@%=#%$&$&&%##&&&*@O#%#@@#$$%#&",
"%%&%%++#$&$&$$$%&&#$$%&***$*+OOXXOO+*$***&%$$#&&%$$$&$&$#++%%&%%",
"%&&%+%O%&$&%&&$&%$%&#&&$$$$@oooooooo@$$$$&&#&%$%&$&&%&$&%O%+%&&%",
"&-%$$##$$&&%%$%$##$&%&$#&%$o.oXooXo.o$%&#$&%&$##$%$%%&&$$##$$%-&",
"&$*%$##++@&&&$$##+#$%*&&$$$X.oXooXo.X$$$&&*%$#+##$$&&&@++##$%*$&",
"%$&#%&&###$%==$$$#$%%%$#%%@XoOooooOoX@%%#$%%%$#$$$==%$###&&%#&$%",
"%%@@$@&&$$%*&&#$##&%$%&@%@XXoOOOOOOoXX@%@&%$%&##$#&&*%$$&&@$@@%%",
"$&$$%#+=$$$&%&@$$####$$%@X .XoOOOOoX. X@%$$####$$@&%&$$$=+#%$$&$",
"&&$###@@@@$##$%&@%@#@##@o  X.XXooXX.X  o@##@#@%@&%$##$@@@@###$&&",
"$$$%@%++O$%%*%@###$$@#@O.  oooXOOXooo  .O@#@$$###@%*%%$O++%@%$$$",
"$##$%###$@#+%$#+#+#$#++. ..XoX.oo.XoX.. .++#$#+#+#$%+#@$###%$##$",
"@&$%%$O+%#@$#&@$$$$$#+o..XoXo..OO..oXoX..o+#$$$$$@&#$@#%+O$%%$&@",
"$##&&&@%%%&$#%$##%$&*#OX@oOOOOO++OOOOOo@XO#*&$%##$%#$&%%%@&&&##$",
"+#%#=#@$;&%$###$+&%%$%@@$+############+$@@%$%%&+$###$%&;$@#=#%#+",
"#$+%$@+$$%%$%@$@O&%%$&@@##%$########$%##@@&$%%&O@$@%$%%$$+@$%+$#",
"#$$@#+$$&$$$#%$@@+#$#&$##$&&&&$##$&&&&$##$&#$#+@@$%#$$$&$$+#@$$#",
"@#$%+#$$%%%#+#&$$O$+o#&$##$*&%&$$&%&*$##$&#o+$O$$&#+#%%%$$#+%$#@",
"$#%$$$&$%&$#O+$%&$@O.o$$$$#&&#$@@$#&&#$$$$o.O@$&%$+O#$&%$&$$$%#$",
"%$&$#@&%%@%$+&@%&#OoXX+$$%$%%%%%%%%%%$%$$+XXoO#&%@&+$%@%%&@#$&$%",
"%%%$#+&%&%@@O#*$%+oXooo@%$#&$%$$$$%$&#$%@oooXo+%$*#O@@%&%&+#$%%%",
"%$&&%O#$&&%@@@$$%OooOooO$%%&%&&%%&&%&%%$OooOooO%$$@@@%&&$#O%&&$%",
"&#@%&%@$%$&&#$%#+OoOXOoo$&$$=#%&&%#=$$&$ooOXOoO+#%$#&&$%$@%&%@#&",
"#$@%&$&&%+#&%#$+oooo.XX.+%*$=%#%%#%=$*%+.XX.oooo+$#%&#+%&&$&%@$#",
"$%&##$#$&#%$###oXXoo..oX.+-%&$%%%%$&%-+.Xo..ooXXo###$%#&$#$##&%$",
"@%$#+@#%%&$%#@O..o.XXXoO.o$%&&-&&-&&%$o.OoXXX.o..O@#%$&%%#@+#$%@",
"%$##@@&&%&$%@@X..XX...O+XX@&&%%&&%%&&@XX+O...XX..X@@%$&%&&@@##$%",
"###$$&&*=%%%#OX.X..ooX+@o.O%&##&&##&%O.o@+Xoo..X.XO#%%%=*&&$$###",
"#%%#$*=*=$*%@oXXX.XOOO+#+Xo$%#$$$$#%$oX+#+OOOX.XXXo@%*$=*=*$#%%#",
"@&$%@$%&$%$@OXoXXXoOoo+++OX+$%&%%&%$+XO+++ooOoXXXoXO@$%$&%$@%$&@",
"$&$#@$$$$%#+XXOOOXoX.Xo+@+Xo$%$##$%$oX+@+oX.XoXOOOXX+#%$$$$@#$&$",
"@%$%#@#&#$&O..ooX.XXXXoo+OXXo#$##$#oXXO+ooXXXX.Xoo..O&$#&#@#%$%@",
"$%$$$@%$$$@@XOX#+XoooOO+Ooooo@####@ooooO+OOoooX+#XOX@@$$$%@$$$%$",
"##%@#$#@#@%$O#@$@+@@+O$##@+###@$$@###+@##$O+@@+@$@#O$%@#@#$#@%##",
"$$$@##$@$#+@+@@@@@@++#+$$$+&#&@@@@&#&+$$$+#++@@@@@@+@+#$@$##@$$$",
"#%##%$&+%+#$@%%%$$#$@@#&%@$$%$$$$$$%$$@%&#@@$#$$%%%@$#+%+&$%##%#",
"#+%&%###$@@#+##$&%$$@##&%##@##$@@$##@##%&##@$$%&$##+#@@$###%&%+#",
"+@$&$;%%#%$@##$%%$&$##=&-#@$#$$$$$$#$@#-&=##$&$%%$##@$%#%%;$&$@+",
"#+#*$$%#$#@#$####$$$#$$*=$$&#%$%%$%#&$$=*$$#$$$####$#@#$#%$$*#+#",
"@$%##$$##$@#@#++#$$$$$$&$$&&%$%%%%$%&&$$&$$$$$$#++#@#@$##$$##%$@",
"$@#$#$@++@$%+&@#@##$%&*%%%&%%&$%%$&%%&%%%*&%$##@#@&+%$@++@$#$#@$",
"#$$#%#@@#@%%$#@@+#+###%%%%#&%$*%%*$%&#%%%%###+#+@@#$%%@#@@#%#$$#",
"$$%%%$#@%@#%$@#@O%O@$#$&%$@$%$&&&&$%$@$%&$#$@O%O@#@$%#@%@#$%%%$$",
"##$$%%%#&@@$@+$@@#@@&&**&$#$%&%$$%&%$#$&**&&@@#@@$+@$@@&#%%%$$##",
"#$##$#&#$##$%+@#%$@#%$&%&&%%$-$%%$-$%%&&%&$%#@$%#@+%$##$#&#$##$#",
"#$$$$$%%#@&$$$#$$%#+#&*%&%*&$@$$$$@$&*%&%*&#+#%$$#$$$&@#%%$$$$$#",
"@$#$@$$$@+%#$##$&$+##*%%$&*%$*%%%%*$%*&$%%*##+$&$##$#%+@$$$@$#$@"
};
