/* XPM */
static char *_5c64e56494f4ae2a3cbb6bd72ed485e[] = {
/* columns rows colors chars-per-pixel */
"64 64 144 2 ",
"   c None",
".  c #0A040A",
"X  c #0C050C",
"o  c #312E33",
"O  c #322F33",
"+  c #322F34",
"@  c #333035",
"#  c #343135",
"$  c #343136",
"%  c #353136",
"&  c #363337",
"*  c #3A3336",
"=  c #363338",
"-  c #373338",
";  c #373438",
":  c #38353A",
">  c #3B373B",
",  c #3E3538",
"<  c #3B383C",
"1  c #3C383C",
"2  c #3C383D",
"3  c #3F3B3F",
"4  c #4B3533",
"5  c #4C3532",
"6  c #4D3532",
"7  c #4D3633",
"8  c #483534",
"9  c #4B3734",
"0  c #4F3734",
"q  c #513835",
"w  c #403C40",
"e  c #423E42",
"r  c #454044",
"t  c #454145",
"y  c #474245",
"u  c #494448",
"i  c #4A4549",
"p  c #4B464A",
"a  c #4C4A4E",
"s  c #605050",
"d  c #655555",
"f  c #615F63",
"g  c #6B686B",
"h  c #6B686C",
"j  c #6E6A6D",
"k  c #726360",
"l  c #787578",
"z  c #AA674B",
"x  c #AB674B",
"c  c #AA664C",
"v  c #AA674C",
"b  c #83736F",
"n  c #898689",
"m  c #959295",
"M  c #969497",
"N  c #999799",
"B  c #9E9C9E",
"V  c #9F9C9E",
"C  c #9E9D9F",
"Z  c #A1A1A3",
"A  c #A3A0A2",
"S  c #A5A2A4",
"D  c #AFADAF",
"F  c #B3B0B2",
"G  c #B1B2B5",
"H  c #B1B2B6",
"J  c #B2B3B6",
"K  c #B4B5B7",
"L  c #B6B7B9",
"P  c #B7B9BB",
"I  c #BABABD",
"U  c #DBC0B1",
"Y  c #E8CABB",
"T  c #E9CBBB",
"R  c #C2C0C1",
"E  c #C3C1C2",
"W  c #C2C2C5",
"Q  c #C2C3C6",
"!  c #C4C3C5",
"~  c #C2C4C6",
"^  c #C4C5C7",
"/  c #C6C5C6",
"(  c #C8C9CB",
")  c #CBCACB",
"_  c #CCCBCC",
"`  c #CCCDCF",
"'  c #D4CCC9",
"]  c #CFCFD1",
"[  c #D3D3D4",
"{  c #D4D3D4",
"}  c #D5D3D4",
"|  c #D6D6D8",
" . c #D8D8DA",
".. c #D8D9DA",
"X. c #DADADB",
"o. c #DADADC",
"O. c #DBDBDC",
"+. c #DCDDDE",
"@. c #DDDDDE",
"#. c #FDD8C7",
"$. c #FFDAC7",
"%. c #FDD8C8",
"&. c #FFD9C8",
"*. c #FFDAC8",
"=. c #FFDBC8",
"-. c #FFDBC9",
";. c #FDDBCA",
":. c #FFDFCC",
">. c #FAE2D5",
",. c #F6E7DE",
"<. c #DFDFE0",
"1. c #DFE0E1",
"2. c #E0E0E1",
"3. c #E2E3E4",
"4. c #E3E3E4",
"5. c #E5E5E7",
"6. c #E8E8E9",
"7. c #EAEAEB",
"8. c #EFEBEA",
"9. c #EBEBEC",
"0. c #EBEBED",
"q. c #ECECED",
"w. c #EDECED",
"e. c gray93",
"r. c #EEEDED",
"t. c #EFEDED",
"y. c #EDEDEE",
"u. c #EDEDEF",
"i. c #EEECEE",
"p. c #EEEDEE",
"a. c #EFEDEF",
"s. c #EEEEEE",
"d. c #EEEEEF",
"f. c #EFEFF0",
"g. c #F0F0F1",
"h. c #F1F1F2",
"j. c #F2F2F3",
"k. c #F3F3F4",
"l. c #F4F4F6",
"z. c #F5F5F6",
"x. c #F9F9F9",
"c. c #FCFCFD",
"v. c #FDFDFE",
"b. c white",
/* pixels */
"                                                                                                                                ",
"                                                                                                                                ",
"                                                                                                                                ",
"                                                                                                                                ",
"                                                                                                                                ",
"                                                                                                                                ",
"                                                                                                                                ",
"                                                                                                                                ",
"                                                                                                                                ",
"                                                                                                                                ",
"                          v                                                                                                     ",
"                        x v                                                                           v                         ",
"              v v v v v v                                                       x       y.y.y.0.    v v                         ",
"        y.y.y.x v v v v                                                         v       x.k.y.f.b.b.b.    y.                    ",
"        y.                                                                      v v l.b.b.b.b.b.b.b.b.b.y.y.                    ",
"      y.y.                                                                      v v b.b.b.b.b.b.. X b.b.y.y.                    ",
"      y.                                                                          l.b.0.. c.O.g u . N b.y.                      ",
"      y.                                    , & & & & & & & & & &           y.y.  f.b.X . . y +.. X 3.y.                        ",
"      y.                              C & & & & & & & & & & & & & & y.y.    ( J P y.b.& . p u.e.y.y.y.y.y.y.    =.              ",
"      y.                          y.y.- & & & & & & & & & & & & & - y.y.y.y.y.W 2.y.y.y.y.y.e.u.y.y.y.y.y.,.>.=.=.&.            ",
"      y.                        y.y.y.& & & & & & & & & & & & & t y.y.y.y.y.y.y.y.y.y.y.u.e.u.e.y.&.=.&.=.&.=.@ ; &.            ",
"      y.                      y.y.y.y.o & & & & & & & & & & A y.y.y.y.y.y.y.y.y.y.f.y.y.e.u.e.u.&.&.b =.&.=.&.@ ; &.&.          ",
"      y.                    y.y.y.y.y.y.& & & & : & p y.y.y.y.y.y.y.y.y.y.y.y.y.y.1.y.y.u.e.u.8.&.: : T =.&.=.&.=.=.=.          ",
"      y.y.                y.y.y.y.y.y.y.y.3 o e A y.y.y.y.y.y.y.y.y.y.y.y.y.y.y.y.~ y.y.u.u.u.&.&.: : U &.=.&.=.&.=.&.=.        ",
"      y.y.                y.y.y.y.y.y.y.y.y.y.y.y.y.y.y.y.y.k.y.y.y.y.y.y.y.y.y.d.] u.u.u.u.&.=.&.$ : =.&.=.&.=.=.&.=.&.        ",
"        y.y.y.          y.y.y.y.y.y.y.+.y.y.y.y.y.y.y.M & & & & ) y.y.y.y.f.} y.e.d.~ u.u.u.$.$.=.=.&.&.=.&.=.&.&.=.&.=.=.      ",
"          y.y.y.y.y.y.y.y.y.y.y.y.n & & & y.y.y.y.y.& & & & & & & y.y.y.y.y.& & e.e.( ~ u.e.=.=.&.=.&.=.&.=.&.=.=.&.=.&.=.      ",
"              y.y.y.y.y.y.y.y.y._ & & & & y.y.y.y.& & & & m & & & t y.y.y.y.& & O e.e.E ~ ` =.=.=.&.=.&.=.&.=.&.&.=.&.=.&.      ",
"                        y.y.y.y.o & & & D y.y.y.y.& & & y.y.o & ; y.y.y.y.j & & @ u.e.u...~ =.&.&.=.&.=.Y &.=.&.=.&.=.&.=.      ",
"                        y.y.y.y.& & & & y.y.y.y.y.y./ 7.y.y.y.5.y.y.y.y.y.; & & E u.u.e.u.~ ' &.=.&.=.&.=.:.2 ; w 2 k =.        ",
"                        y.y.y.- & & & D y.y.y.y.y.y.y.y.y.y.y.y.y.y.y.y.y.y.o & u.e.u.u.u.u.~ &.&.=.&.=.=.&.=.&.&.=.&.          ",
"                        y.y.y.@ & & & y.y.y.y.y.y.y.y.y.y.y.y.y.y.y.y.y.y.y.y.y.e.u.e.u.u.u.~ ] =.&.=.&.&.=.&.=.&.&.            ",
"                        y.y.y.y.& & & & o * & & X.y.y.y.y.y.y.y.y.y.y.y.y.y.y.y.y.y.y.y.y.y.o.~   $.&.&.&.&.=.=.                ",
"                          y.y.y.F & & & ; & & } y.y.y.y.y.y.y.y.y.y.y.y.y.y.y.y.y.y.y.y.y.y.f.                                  ",
"                          y.y.y.R & & & & 2 y.y.y.y.y.y.y.y.a & j y.y.y.l.j.y.y.y.y.y.y.y.y.                                    ",
"                            y.y.y.[ R j.u.u.y.y.y.y.y.y.y.j.& & & & y.- & ; : y.y.y.y.y.y.y.                                    ",
"                            y.y.y.y.y.y.y.y.y.y.y.y.y.y.y.o & & & & = = & & & y.y.y.y.y.y.                                      ",
"                            y.y.y.y.y.y.y.y.y.y.y.y.y.y.y.& & & & & = = & & & y.y.y.y.y.J                                       ",
"                            y.y.J y.y.y.y.y.y.y.y.y.y.y.l & & & & & = = & & Z y.y.y.3.J J                                       ",
"                            y.y.X.J y.y.y.y.y.y.y.y.y.5.& & & & & & : : 8 y.y.y.y.I J J J                                       ",
"                            y.y.y.J J W y.y.y.y.y.y.g & & & & & @ e.e.d.y.y.y.y.y.J J J                                         ",
"                              y.y.J J 0.  o.y.y.D & & & & & & & & e.d.e.y.y.y.y.y.J J J                                         ",
"                              y.y.P J     J J J t & & & & & & & *       y.y.y.y.  J J J                                         ",
"                                y.e.J       J J                           y.y.y.    J J                                         ",
"                                y.y.J       J J                           d.y.d.    J J                                         ",
"                                y.y.J       J J                           y.y.d.    J J                                         ",
"                                  y.J       J J J                         y.y.f.    J J                                         ",
"                                  y.K       J J J                         y.y.y.    J J J                                       ",
"                                  y.0.      J J J                         y.y.y.    J J J                                       ",
"                                  y.y.f.    J J J J                       y.y.y.    J J J                                       ",
"                                  y.y.|       J L J                         y.y.y.    d C C                                     ",
"                                  y.y.7.      s 7 7 7                       y.y.y.    7 7 7 7                                   ",
"                                  y.7 7 7     0 7 7 7 q                     7 7 7 7   7 7 8 7                                   ",
"                                    7 7 7 7                                 7 7 7 7                                             ",
"                                    9 7                                                                                         ",
"                                                                                                                                ",
"                                                                                                                                ",
"                                                                                                                                ",
"                                                                                                                                ",
"                                                                                                                                ",
"                                                                                                                                ",
"                                                                                                                                ",
"                                                                                                                                ",
"                                                                                                                                "
};
