/* XPM */
static char *_f45433c2c22492890a3c46769c42a24[] = {
/* columns rows colors chars-per-pixel */
"64 64 244 2 ",
"   c #0A0500",
".  c #392602",
"X  c #2C2000",
"o  c #492B00",
"O  c #443302",
"+  c #483906",
"@  c #583C01",
"#  c #532C00",
"$  c #4A440B",
"%  c #5D4300",
"&  c #5A4902",
"*  c #524C13",
"=  c #5D5515",
"-  c #5A5716",
";  c #4F4C11",
":  c #634B00",
">  c #6A4C00",
",  c #644500",
"<  c #6B5301",
"1  c #685501",
"2  c #745500",
"3  c #745A00",
"4  c #7B5D00",
"5  c #7D5401",
"6  c #635C15",
"7  c #645C17",
"8  c #775C14",
"9  c #7D6200",
"0  c #6C641A",
"q  c #6C681A",
"w  c #736B1C",
"e  c #73661A",
"r  c #7B721D",
"t  c #79751C",
"y  c #6D701F",
"u  c #7A7621",
"i  c #6F6C27",
"p  c #537022",
"a  c #087E46",
"s  c #444444",
"d  c #555555",
"f  c gray40",
"g  c #777777",
"h  c #845D02",
"j  c #905F01",
"k  c #836400",
"l  c #856A00",
"z  c #8C6C00",
"x  c #8A6600",
"c  c #926D00",
"v  c #986801",
"b  c #8C7100",
"n  c #8B7903",
"m  c #937200",
"M  c #997400",
"N  c #957C01",
"B  c #9C7C00",
"V  c #84791D",
"C  c #A26D00",
"Z  c #A37D00",
"A  c #AB7600",
"S  c #B37B00",
"D  c #B77C00",
"F  c #837D21",
"G  c #897C22",
"H  c #947F3C",
"J  c #8D7E45",
"K  c #6E8816",
"L  c #1A8F48",
"P  c #008C54",
"I  c #00955A",
"U  c #119149",
"Y  c #1DA652",
"T  c #00A963",
"R  c #0BB76D",
"E  c #2C9E4B",
"W  c #57A558",
"Q  c #00C678",
"!  c #29CA76",
"~  c #9C8600",
"^  c #88851D",
"/  c #8F8F12",
"(  c #A48200",
")  c #AB8400",
"_  c #AC8A00",
"`  c #B48500",
"'  c #BC8200",
"]  c #B38B00",
"[  c #BC8C00",
"{  c #AA9205",
"}  c #B59301",
"|  c #BB9300",
" . c #BB9A00",
".. c #BF980C",
"X. c #B09513",
"o. c #8CA31A",
"O. c #BEA707",
"+. c #8B8423",
"@. c #8A8724",
"#. c #938C25",
"$. c #958E28",
"%. c #9C9526",
"&. c #9A9429",
"*. c #989728",
"=. c #9A9937",
"-. c #A49D2A",
";. c #A59826",
":. c #A89230",
">. c #9BA22A",
",. c #A4A32C",
"<. c #AAA42D",
"1. c #ACA92C",
"2. c #B4AA2D",
"3. c #B8B22D",
"4. c #AAA831",
"5. c #B4AD31",
"6. c #B3B533",
"7. c #BBB433",
"8. c #BCBA33",
"9. c #B5B835",
"0. c #ABB130",
"q. c #C48B00",
"w. c #CC8C00",
"e. c #C38400",
"r. c #D18C00",
"t. c #C39400",
"y. c #CD9401",
"u. c #C49B00",
"i. c #CB9D01",
"p. c #CA9908",
"a. c #D39500",
"s. c #D59C03",
"d. c #DB9B00",
"f. c #D49B08",
"g. c #C5A300",
"h. c #CCA201",
"j. c #CCAB00",
"k. c #CAA309",
"l. c #D3A401",
"z. c #DDA401",
"x. c #D4AB00",
"c. c #DBAD00",
"v. c #D8A70B",
"b. c #D5B200",
"n. c #DCB200",
"m. c #DDBB03",
"M. c #D8AB11",
"N. c #CDAF11",
"B. c #E2A500",
"V. c #E3AC00",
"C. c #E4AB06",
"Z. c #E3B500",
"A. c #E9B301",
"S. c #E5BA00",
"D. c #EABD00",
"F. c #E6B40C",
"G. c #E4B817",
"H. c #F0BF00",
"J. c #C4BB31",
"K. c #C7B126",
"L. c #E2AE10",
"P. c #DEC600",
"I. c #E5C200",
"U. c #ECC200",
"Y. c #ECCC00",
"T. c #E7C80A",
"R. c #F2C200",
"E. c #F3CB01",
"W. c #F9CA03",
"Q. c #EDD200",
"!. c #FCD301",
"~. c #F6D904",
"^. c #F3D018",
"/. c #FEE10C",
"(. c #C5C234",
"). c #CCCB3B",
"_. c #C8C537",
"`. c #D3CD3A",
"'. c #D5CA35",
"]. c #CDD13C",
"[. c #D4D33B",
"{. c #DAD53B",
"}. c #DDDB3D",
"|. c #D6D438",
" X c #E7C627",
".X c #F6DB27",
"XX c #E2DE3D",
"oX c #E8D73E",
"OX c #F0D336",
"+X c #E3E33E",
"@X c #EDE83F",
"#X c #FCE321",
"$X c #D8E03F",
"%X c #A59A4D",
"&X c #B4B153",
"*X c #A19860",
"=X c #C9B86A",
"-X c #DCDD42",
";X c #D3D641",
":X c #CFD240",
">X c #E8D841",
",X c #F3DC47",
"<X c #E4E442",
"1X c #E9E441",
"2X c #ECEC43",
"3X c #E9EB47",
"4X c #F4EA43",
"5X c #EEF145",
"6X c #EDF34A",
"7X c #F3F345",
"8X c #F3F44A",
"9X c #F5FC4B",
"0X c #FAFC4D",
"qX c #F6FC50",
"wX c #FDFF51",
"eX c #F0E25D",
"rX c #E2D767",
"tX c #F0EB72",
"yX c #DCD465",
"uX c #50C384",
"iX c #888888",
"pX c gray60",
"aX c #ABA98D",
"sX c #AAAAAA",
"dX c #BBBBBB",
"fX c #BDBBB2",
"gX c #C3BA8D",
"hX c #89D99F",
"jX c #D5CD94",
"kX c #E3D896",
"lX c #FBF388",
"zX c #C6C6B5",
"xX c #E7E1B6",
"cX c #D4E0AD",
"vX c #CCCCCC",
"bX c #C9C9C2",
"nX c #DDDDDD",
"mX c #D3D3D0",
"MX c #D0D0CD",
"NX c #ECE8C9",
"BX c #EEEEEE",
"VX c white",
"CX c #F6F3E5",
"ZX c #E7DFC8",
/* pixels */
"vXsXsXsXsXsXsXdXdXdXdXdXsXsXdXdXdXdXdXdXvXvXvXvXvXvXvXdXdXdXdXdXdX7 r pXpXpXpXpXvXpXdXpXpXpXdXpXpXdXpXpXdXdXdXdXdXvXBXVXVXVXBXvX",
"vXdXdXpXg pXpXpXpXpXpXpXpXsXsXpXsXvXdXdXBXvXvXvXdXsXpXsXsXsXpXsXV 2.$.pXpXsXpXsXpXpXpXpXpXpXsXpXsXsXpXpXsXsXpXg pXdXvXvXBXBXdXvX",
"nXvXpXg f g g f g g g g pXpXg g sXvXpXpXdX= vXdXpXg g pXpXpX#.2.J.%.g g pXpXsXdXdXdXsXsXsXsXsXpXg pXg g g pXg f pXdXpXpXvXdXsXdX",
"vXnXsXiXiXg f s f f s f iXg g iXdXsXg g u y iXg g 3 2 : dXF J.{.|.e sX4 5 dXvXnXnXvXvXvXvXvXvXdXsXiXiXg f f f f iXiXf g dXsXpXpX",
"dXnXnXdXsXsXiXiXiXiXg g iXiXvXdXsXg g #.3.iXiXsXdXM 3 vX= 7.+X4X(.6 dX< 3 : dXsXiXg iXsXsXvXnXnXnXvXvXvXdXsXsXiXsXg g iXdXsXpXsX",
"iXpXdXvXnXvXvXdXdXdXsXiXiXsXdXsXiXg &.`.V g iX+ Z ` iXg 0 `.5X7X*.iXiXg : ` < f g f f f f g sXdXvXnXBXBXBXnXnXvXdXdXdXvXvXnXnXVX",
"dXdXsXdXvXnXnXnXnXnXvXvXvXdXdXsXdX+.'.|.%.sX+ ) l.x iX= <.-X2X5X*.f f f f ` i.< f g f f f f f g g sXdXdXdXvXnXvXvXvXsXiXdXBXVXVX",
"nXnXdXdXdXvXvXdXvXnXnXnXBXBXBXBXBX6.>X}.@.@ ) z.n.4 g 0 <.1X7X8X,.f s f f ) c.[ 3 g -.;.-.-.$.#.f g g f f f g g iXiXg f iXdXvXdX",
"dXdXpXiXiXsXvXvXvXnXvXm BXvXvXBXBX}.@X+X#.& i.Z.b.9 g r 8.1X7X0X9.w iXiXg _ Z.c.Z 4.oX>X+X(.<.t e f x @ f f g g g f g g g sXpXpX",
"pXpXf g g f sXvXnXnXvXS iXiXiXsX#.XX5X5X4.; l.Z.S.) : r 8.1X9XwX8X6.g g 4 g.S.Z.,.-X7X5X[.+.s g f g B M f f g g g f g g g sXdXpX",
"iXiXf s f g iXiXdXvXdX[ 2 g iXiX%.XX5X8X-X*.; D.U.Z._ e 7.@X0XwXwX|.- z u.Z.D.+.`.6X9X}.#.f s g f f Z S f f f f f g iXsXg iXpXpX",
"iXiXf f iXiXg g iXiXM i._ % f g #.}.9X9X9X+X%.= U.R.U.6 3.5X0XwXwX0X&.S.U.U.D.6.+X9X9X].u f f f f f u.` % f f f f f dXdXg iXpXpX",
"iXpXiXg g g f g g f Z c.l.m g g V }.9X9XqX9X+X-.U.R.R.0 <.@X0XwXwX<X;.U.R.U.0 `.8X0XwX:Xy f f f f B c.t.k g f f f f dXvXiXiXpXsX",
"pXdXpXg g iXg f f g ` c.S.u.: dXi [.9XwXwX0X6X7.U.R.U.D.0 |.0XwX<X,.$ U.R.R.u 6XwXwXwX6X&.f f f 2 h.A.h.k f g g f f iXvXsXiXiXpX",
"dXdXpXg g sXiXsXsXdXM c.Z.S.h.9 q 9.8XwXwXwX6X0.S.R.R.S. .i 0.).*.; m.U.R.U.i 9XwXwXwX8X[.f g 3 g.S.S.z.9 s f g f f f dXvXnXdXpX",
"dXdXiXg g sXiXsXsXdXvX| n.D.R.b.l.%.}.0X0XwX<X#._ h.x.} 2 sXdXiXf g | x.n.i.- [.0XwXqX8X8.Z ) h.D.Z.Z.] % g g #.g g g sXvXnXvXsX",
"dXvXsXg f f f f g g iX( x.Z.D.R.R.+.3.@X0X9X6.f iXsXg d.d.w.A A ' w.f.j sXg f K -X9X6X$X@.S.S.U.D.c.h.c MXdX; 8.vXvXvXvXvXvXBXvX",
"g dXsXg f g g f V #.^ +.u u S.U.R.R.+.<.7.4.dXsXd.f.f.f.f.e.A A ' r.f.f.d.v.g d y 6.>.@.= R.R.I.Z.c.) k dXsX*.{.* sXdXnXBXBXBXdX",
"iXpXiX& iXiX&.`.|.}.}.}.;X).<.-.; R.A.Z dXpXg v.M.p.p.f.a.q.A Z e.q.v.f.f.f.L.v.f f l n.R.R.$ q 4.-.- g - *.+X`.0 g iXvXnXVXBXBX",
"dXiXf 9 3 8.oX2X2X2X9X9X9X8X2X'.<.H.D.z iXa.v.G.v.M.M.k.f.q.} [ [ y.f.p.M.v.M.L.d.M m U.E.. *.}.6X6X).8._.<X4X'.r g z dXvXnXVXVX",
"dXpXiXz `.{.}.1X5X8X9X9XwXwXwX7X`.x._ f r.z.G.C.F.G.N.k.l.s.i.h.s.i.k.M.G.G.F.L.M.d.w.h.R.* (.6XqXwXwX9X8X8X2X_.t g ] nXvXdXvXdX",
"iXiXiX_.;.%.$.*.*.).3X9XwXwX0X0X-X& f w.y.C.k.i.G. X XG.n.c.u.u.c.c.G. X XG.f.p.F.z.d.v B ] $XqXwXwXwX9X9X5X}.&.f 5 i.nXvXdXiXpX",
"iXg -.y x.| 9 iXiXG 8.6X9XwXwX9X].f g y.V.p.i.p...K.K. Xm.j. . .j.m. XK.K.X...i.t.C.a.e.sXg 6.qXwXwXwX7X1X).%.f < | i.nXsXsXiXpX",
"pXiXiXc c.Z.u.k 2 < r ).3X3X3X$Xf g w.V.d.c.h.i.u.{ X.k.S.n.u.u.b.I...X.} g.i.l.c.l.B.s.D iXpX;X0X9X8X-X8.#.g 3 ] c.| nXdXsXdXsX",
"iXpXpX2 l.Z.Z.n.h.x.n.w -.<.@.iXiX' a.i.Z.S.n.j.u.` N } I.I.b.n.U.I._ B ] u.h.n.D.Z.z.q.a.A pXiX4.(.,.F z z N  .n.c.A nXvXvXdXsX",
"iXpXiXf | c.Z.S.U.U.U.D.b.9 iXg 5 ' B.A.Z.j.} }  .) ( ) j.m.n.n.b.g.Z _ )  .}  .j.S.D.A.y.' sXg + ] c.Z.n.x.n.Z.Z.z.4 BXvXdXdXsX",
"pXpXf g 9 i.c.D.U.U.R.U.D.| dXsXA y.A.c.l { B c b [ ] ]  .b.b.m.g.} ]  .] c b ~ _ z i.C.A.S C pXM n.D.D.U.U.D.Z.c. .vXnXnXdXpXdX",
"vXdXpXiXiXl t.n.D.U.R.R.R.x.sXsXD B.[ 4 ~ K p W 1 o 9 ) b  .b.b.~ N ) 3 o e W p K n z M A.w.A pXh.U.R.R.U.U.D.c.u.9 sXvXnXdXpXq ",
"nXnXdXsXiXg 0 7 q w r w + g.iXpX' [ @ Z W I P W zXG O O # l D.Z.X , . o $.zXW I U W =.% S B.A iXZ.R.. @.G D.c.| k iXiXvXvXdX;.V ",
"dXdXdXsXg w <.<.8.8.J.3.<.* g g w.2 > jX! R I Y ZXkXJ . # O ~.F.  o , %XxXZXY T T R jXh , a.e.f  .R.*.].XXJ.,.= iXiXsX6 0 &.2.0 ",
"pXdXsX+.7._.-X1X1X3X2X2X7X[.- C v X G xXuXQ R P CXCX*X% > * 4X'.  h , fXCXCXP R Q R NX=X> % Z f g $.$X9X0X0X6X6.*.*.,._.{.J.V dX",
"dXvX#.(.3X4X3X7X7X9X0X0XwXwX*.x +   &XxXhXI I a ZXkX8 9 O K.lXrX1 4 , =.kXzXa I U ! NXjXx   2 v g _.wXwXwXwXwX0X9X8X7X4X}.2.7 sX",
"vXe 5.}.4X7X8X8X0XwXwXwXwX0X0.4 2 X n kXcXL U L gX%.o b 9 eXlXlXG.: 9 @ %XjXE U L hXkX=.O > 5 5 g 6.wXwX0XwX9X7X8X2X2X1X_.&.iXdX",
"BXr _.[.[.0.,.6._.8XwX0X8X-Xu 2 D w.4 h.yXo.o./ , o @ ~ m.lXlXlX4X..9 # # 1 / ^ o.yXM.m v w.C g g @.<X7X7X2X2X1X2X-X`.J.#.pXpXdX",
"0 2.;.r q sXsX3 w 5.'.2X).^ pXpXe.d.V.c.D.x. .l , @ 1 b.#XtXlXlX4XW._ 1 @ & 9  .x.D.Z.l.V.r.D iXg 9 t 3.J.(.(._.2.1.r * g pXpXdX",
"G -.dXdXsXiXk | x.D.= #.+.~ iXdXr.B.A.T.W.E.!.Y.g.N ~ j.X.rXtXrX5._ j.~ N j.Y.~.W.!.R.A.B.d.w.sXb n.C.7 t V +.u q w iXg f iXdXvX",
"r dXpXiXiXN u.Z.U.R.R.U.R.| iXpXr.d.F.OX.X/.~.~.j.Z.u.b 1 7 i i . 9 N x.c.b.~././.#X.X XB.d.r.iXc.R.R.H.D.c.[ 4 g iXiXiXiXf pXnX",
"dXdXpXg M h.V.D.U.U.R.U.Z.~ pXiXD r.C.OX4X#X~.{ Y.W.U.h.b.3 . + n n.h.R.W.I.{ ~.#XOX,XG.B.e.D f n.R.R.R.U.D.n.u.z g g g iXiXvXnX",
"pXpXiXg u.n.Z.U.U.U.D.D.h.3 pXpXiX' B.OX4X.X~ n E.W.!.!.Y. .l z j.Q.!.!.!.Q.~ ~ #X,X>XF.a.S iXf u.H.H.R.U.U.D.x.i.3 g g iXpXdXdX",
"pXpXiXc n.Z.Z.x.h.c.Z.h.G 4.4.#.g C e.B.oX^.& O.T.Q.Q.!.U.Y.P.I.Y.Y.Q.Q.Q.T.j.$ W.OX Xd.S j iXg b K &.+.7 U.S.Z.c.] g iXg iXpXsX",
"dXpXpX` C.c.) 4 4 3 #.(.-X8X9X6X).g ` s.A.OXn m.dXdX_.&X4.%X=.%X%X%X&X).dXdX .N .X XV.w.S iXpXg ].+X3X<X2.6 c.m.Z.i.: f g pXpXdX",
"pXpXsXt.h.( iXiXg >.).+X8XwXwXwX3X&.f ' B.T.h.E.u.=.aXmXpXmXzXzXmXaXzXfX=. .Q.b  XD.a.e.pXf f 3XwXwXqX9X3X,.0 g.Z.l.x f g @.pXsX",
"dXBXsXu.B g iXsX-.>X6X9X0XwXwXwX8X6.f A w.V.I.x.E.m.n *X=XbXaXaXdX=X*X9 b.E.E.u.Z.B.' % iXg g 6X0XwXwXwX9X-X7.+.+.F V %.'.f pXsX",
"nXBXsXt.> sXdX#.).4X9X6X0XwXwXqX6X,.g g D y.V.[ U.U.U.g.g.<.N.2.-.b.O.I.Y.U.A.Z.B.y.S + 4 : @ XX0XwXwX0X0X9X5X+X}.|.[.'.g iXpXsX",
"vXnXpX) sXvXsX^ {.@X<X_._.;X6X3X-X^ g.f g h d.c.c.D.U.E.Q.Y.Y.Y.I.Q.Y.U.U.Z.] B.a.dX: u.n.l.] J.XX9X9X9X8X9X5X5X2X>XJ.g f iXpXpX",
"nXdXf 3 g g iXF }.|.%.- $ 0 1.1.R.$ n.< f f f d.y.V.Z.D.U.U.U.R.U.Y.U.S.Z.V.d.d.vXiX .U.R.D.c.w 2.7.}.<X<X+XXX}.{.<.1 g g iXpXsX",
"vXiXd f g iXdX0 `.#.: c k.c.D.U.R.R.x.6 @.>.,.f @ d.c.B.B.Z.l.h.c.V.B.z.z.d.dXsXdXO >.4.@.7 D.c.| = #.$.%.,.-.&.g f g iXg iXpXsX",
"dXpXiXg sXdXiX- J.g c | n.Z.D.R.R.R.h.4.-X6X3X:Xf s g @ a.d.[ ` a.d.d.f f f f iXdX).8X7X{.;.= Z.x._ 3 iXf f f f g g g g g iXiXpX",
"pXpXpXsXdXdXiXi +.g M l.Z.D.D.D.n.] = ).9XwXwX0X9.9 : O f f f g f f f g f f g g 0.6XwX0X5X'.F D.Z.h.Z dXg g g iXg g g g f iXdXdX",
"iXdXdXsXiXiXiXu u h u.Z.D.S.] M b g w -XqXwXwXwX3XZ.j._ g g 6 #.6.*.u.c.u.m iX; _.9XwXwX0X<X-.U.Z.c._ g g iXsXg g iXg g g pXdXsX",
"pXvXsXg g iXsXiXg M c.Z.n.( g g f f = 9.qXwXwXwX1XR.U.b.N 6 6.8XwX9XJ.R.R.Z.( g ).8XwXwXwX5X8.h.D.Z.l.m f g g iXdXsXg g g iXpXpX",
"dXdXiXg iXiXiXg g M i.Z._ f f f f f f #.-XwX0X8X9.R.U.S. .1.3XwXwX9XXX$.R.U.i.< J.2XwXqX9X6X).9 h.A.c.Z f g f g iXsXiXiXg iXdXdX",
"dXpXiXiXiXiXiXiXg c t.u.x g f f f f f $.<X9X8X+X*.R.U.c.b 3.0XwXwX9XXX-.R.D.x.b e (.3X9X9X8X`.t ( c.l.Z g g f f f f f f f iXdXvX",
"pXdXiXg g g iXiXiXiX` Z g g g g g g g 4.3X9X3X8.w S.x.| < +.3XwXwX9XXX<.$ D.Z.) f w 6.3X8X5X[.t < | t.c iXiXg g f f f f s f dXBX",
"iXpXiXg g g iXiXg g ) k f f g iXiXiX&.2X7X5X`.#.n.( & f f q `.8X0X8XXX<.* U.Z.} f g w ).5X@X{.g iXx ` dXdXdXsXsXiXg f f g f iXdX",
"pXpXiXg iXsXiXg g f c k f f - 0 t 2.'.+XXX`.-.Z._ g g g g g &.-X0X5X+X<.* D.Z. .f f g 5.2X1X[.g f 4 ` g sXdXdXsXiXiXg iXiXf iXsX",
"pXpXiXg g iXg g g g f g f f g u $.$.2.-.;.$.c.Z.m f f s f g sX:X9X2X-X#.+ Z.A.` f f f 1.+X1X<.f f x x s f iXiXg g f f g sXpXiXg ",
"dXvXpXg f g g iXiXg g g g g g g iXg g f f 4 i.c.z f f s s g iX(.7X2X[.&.B c.i.z f f f <.1X_.r f f f f f f g iXg f f g iXiXf g g ",
"pXdXpXsXiXiXiXiXg g g sXsXiXg iXiXiXg f f g z i.B g g f iXg 7 8.7X4X8.6 ( i.c f f f s <.`.%.f f f g iXg g iXg f f f dXiXf f iXpX",
"iXiXf f g g g iXiXiXg g g f f f g f g g g g g > t.& g g g f +.[.7X+X<.: ] 4 g f f s t 7.+.g f g iXg g g f f f f s g dXf f f pXsX",
"dXdXpXiXiXiXiXsXsXsXiXg iXiXg iXiXiXiXiXiXiXiXiXiXg iXg g g $.XX[.7.w 4 > iXiXg f g +.u iXiXiXiXiXf g g iXg f g g sXiXf g g sXdX",
"pXsXdXdXpXpXdXdXpXpXiXiXpXdXpXpXpXpXpXpXiXiXiXiXiXg iXg iXiXK.J.2.F dXvXpXpXdXiXiXpX6 dXpXiXiXiXpXpXpXiXpXiXiXiXdXpXiXg g pXdXvX",
"sXdXvXdXdXdXdXdXpXpXpXdXdXdXdXdXdXdXdXpXpXpXpXpXpXiXiXiXpX<.2.0 = dXvXnXdXdXdXsXdXdXdXdXsXpXsXdXdXdXdXsXsXsXpXsXnXdXsXsXpXsXvXnX",
"VXvXsXvXvXvXvXnXnXsXvXdXsXdXdXdXdXdXdXsXdXdXsXsXdXsXsXsXw V 6 vXvXvXdXdXnXnXvXdXdXdXsXsXpXpXsXdXsXsXdXdXsXsXsXsXdXdXsXsXsXsXVXVX"
};
