/* XPM */
static char *_9516f2394384e64a5c0fb57b27fe14d[] = {
/* columns rows colors chars-per-pixel */
"64 64 16 1 ",
"  c black",
". c #111111",
"X c #222222",
"o c gray20",
"O c #444444",
"+ c #555555",
"@ c gray40",
"# c #777777",
"$ c #888888",
"% c gray60",
"& c #AAAAAA",
"* c #BBBBBB",
"= c gray80",
"- c #DDDDDD",
"; c #EEEEEE",
": c white",
/* pixels */
"=&&&&&&*****&&******=======*******%%%%%%=%*%%%*%%*%%*****=;:::;=",
"=**%#%%%%%%%%&&%&=**;===*&%&&&%&&&%%%&%&%%%%%%&%&&%%&&%#%*==;;*=",
"-=%#@##@####%%##&=%%**=*%##%%%%%%###%%&***&&&&&%#%###%#@%*%%=*&*",
"=-&$$#@O@@O@$##$*&##$$$####&*&&&&&&&&*=--======*&$$#@@@@$$@#*&%%",
"*--*&&$$$$##$$=*&##$$$$&***=****==*****&$#$&&=---===*&&$&##$*&%&",
"$%*=-==***&$$&*&$#$$##$==&$#@@###$$##@@@#@@@@#&*=-;;;--=***==--:",
"**&*=-----===**&*$$&&&*-&#$#####@@@@@@@@@#@@@@@##&***=-===&$*;::",
"--***==*=---;;;;;-***&&&$##$#####@O@@@@@@#@@@@@@@##@@@##$$#@$*=*",
"**%$$&===-=-;==;;-;-=*&&$##&$#@#$$$$####@@#@@@@@@@#@@@###@###&%%",
"%%@##@&=--=&$$$&==*$&&&&&&&$$##$$$##@##$##@@@@O#@##@@@###@###&*%",
"$$@O@#$$*=*&##$$*=*#@###$&&&&$$&###@@O@###@@@@O#@@@@@@@@@#$&#$%%",
"$$@@$$##$$*&&#@#$$$$$$####@#&===*&&#@OO@@#@#@@@@@@@##@@@@@**#$%%",
"$%$###@##@&&**##$#@@$#####@@#$&*=--*#OO##@#$#@@@@@@@##@@@@*=$$%&",
"%*%##$#@@#***=**$#@@@@@@########$$&*=*&##@###@@@#@@O@@##@@$=&$$%",
"**%##&$&&*==&$$*=$#@@@@@#$&&$&&#####&*=*&#@##@####@OOO@#@@@*=-*%",
"**$##&$&&*==*$#&==&$$##$&**&&&*$@#$#$$$=*&#$$$$$$$#####$###&=-=&",
"*=&#@@@@##$&&$&##$$#@@@@$&#####$$*=*&#@#$$&&***======**=======;=",
"#*&#@##@@@#@@$&##%;*%$*&$#&$&*%&$#&&%%#+@@$%%*-=%*&**&$&&&*-;;;*",
"$%$$$$#@@####$#@$%&=*%##@#&#X.      Oo@%@@##@@$$&*@##@@@@#$=-:;;",
"*$@#*&&#####$*##$%&$$*&#$*O.X  o+++##OO+$$@@@@@@@%@@@##@@#&*=-::",
"*%$#$&&&&@@@$&#####@#&*%*@+&%#$%@o X+++$oO$@@######@OO#@@#&-=*=*",
"$$$####&*###$@@@@@@@@#%#o$$@@@@@@%&oX+oO%  %@@@##$$#@O@@@@*-=*$%",
"$#@@@##$$##$$@%$@@##$&$@$&&$##$&###&$+#+OO.X&#####$$#@@@O@*-&&$%",
"%$$$$$###@@@$#@@@##+$#$&$&&&$$##$$#@#% o..OXO$%$###@@@####=-*&*&",
"$%%$&&&*&$$$$$$$$#$%*%&$%%#####%#$*$#%$ XOoX.O%$@&#@@@@##$=-==*&",
"$%$@#$$$$&=&$#$#%%##$%#@@@$####&&###$$&%.OooXO&#@*#@@@@##$-;=**&",
"%%@###$$#$$$$$*&&$%#@#%&%##@####$$#@@#$*% @$@@%%$*#@@@@@#&=--*%*",
"=*%$$##$&$####&&+O$%%*%O#=%###$#%%###$$%=o@#OXo%&&$$##@@$&&=-*%&",
"--*&$##*=&&$##$%&++@@%O.%&%%$####$$$$$&%%oX  .@$#&*&#$$$&$$==*%&",
"***&#$$*=&&$#####*&@ @=&*@@%%###@%%%$$$&&XX .. @@$&&#@@#$$&=*&**",
"%*&$$$$&&$$$#@@#%&#o+X@@&##$#&$$#$$$%#%$%oo@OOX@#$#$$@@@@#&*&&**",
"*=%&*&$*&&$$##$$&$@# @@$%$$$@#&#@#@@@##@#oO#o .##$##$$##@#$&$#%&",
"=-*=-===&$$#$$$*%=%=#$&&&**#@@%$@@##@@@@$#O..+$$#$$##&&$##$&##$*",
";-**==--&&$##$%&%o@&@&+O%**$@@@##@@##@@@%o+OOOO##$$$$$$$##$&$%%*",
":-&&&&&$$$$&$$%%X+&$@$%+X&&@@@@##$@#@@@@# ooooo$#$$$$#$$@@#@#%%*",
";-**&$&&$$$$$$$*=;&###$-=*%$@@@@##@##@@##OXXOo+&#$&&###$$#$#@$*=",
"**%$$*--*$&$#$$%%%%$$##$=&@#@##$&@@@##@# Xoo. %$#$&*$#@@#$$$$@%-",
"**%##$&&&$*&$$%$$%$%###&=&$#@@@%$##@@@@# O#+++#@##$*&#######$$=-",
"%%$#$$####$$$$%%$#@$&$&*=**&$@@#@@@@@@#Oo@@@&$$@@##$$#######$%**",
"%%$$&$#$$$#@#@####@%%$%***&$$$#@@#@O@#O XoX+ $$#####@##@@@#$#$%&",
"*%%&$$$$$$@@@@@@@####+o&&%&&&*&$#@@@#O .XX++@$%#$%$#@###@@@@#%%*",
"%%&$#$$$###@@@$$##@@@$@O=&%$%&&*&%$$. oooX. %@@#%&$####@#@#@#$%&",
"*;&###$&&$#@@@@$$@@$#@#+ X%$$&&=;*%. ooo@  %$##$&$#####@@@#$#@%&",
"-;&$$&*&&$#####%$###@@@#@..O&&*#X .X@$+##O&#@###&#####@@O@###$%&",
"=-%&&=&&&##$&&$####@####@##   . +++oX+O$+*%$#@#&&@@@##@@@@##@$%%",
"-*@@##$&$$$$&#@#$##@@@@@@@#$o..ooOOX X#*=$$$$$$&#@@#$#OO@@###$%&",
"=$+@#$*&$###$##%&%%#@#@@@O@@#$@@Oooo@-*&*@@$&*&$##@##@@@#@#$#$%&",
"*%$#&*$######$#@@@@@###@@O#@@@@#$#@@@@@$*&#$$##&***$@@@@#####$$%",
"%%%&**$######$#@@@@##@@@@@@@@@@#@@@#@@##$**&$@O@#&**###$####@$**",
"$**&$$$###$$#@######@@@@#@@@##$$#@@#@$$##&==*$####@##$&##$###%*&",
"%=&##$&$#$#@@@##@@@@@@@@@@@#$$#$&#@#$$@##$***&**&#@@@##$*&###$%%",
"**$#$$$####@@@@@@@@@@@@@@@@@@@#@#$##$#@#$$$$$&==*&#@@#@#$&$$#$**",
"*%$$$$$$##@###@@@@@@@@@#@@O###@O@$#####$@##@#&*===&$##@@@@@@@$*=",
"%*$###$$$$$#########@@###@@##@@#$#$$#$$#@@#####&=**&$$##@@@@O@*;",
"$%$###$$##@@@@#$$$$#@@#####@@@##$&$#$&$@@##$#@##$$$***&&$#@@#@$*",
"%%$#$&$##@@@@@#$##@@@@@########&&$@#$$$@@@##@#$#@@@#&**&$$#$$@$&",
"%%$##$####@#@@####@O@###@@@O@#&*$$#$#$#@@@@@#$$@@OOO@$$##@@#&%$#",
"*=%#@##$$#######$##@@####@@OO#$#$$$$$$#@@@@@@##@@@@@@#$#@@#$$@##",
"%*%&$$$$###&&$#$$$#@@###@##@$#@@##@#$$#@@@O@##@@@#$##$#@@@*$@@$%",
"$$@@###$$$###@@@#@#####$$####@@###@#$##@@O@@$#@#$###@@@@O#*@@@%&",
"**%$$$$&&&$#$$#$$$$$$$$$$#$###$$&$$&&$$#@##$$$$$$@##$#@##&$@##&*",
"%&**%%**%%$$%*%%%%%%$$$$$#$#$$%%*%*=%%*$$%%*%$$$%%%$%$$$*%$##%*=",
"&*=*****%%%********%%%%%%$$$%%*==*=-***&****&%&****&&&%&-*&&%&=-",
":=&====--&=*&******&**&&*&&&**====**--=***&&%%&*&&**&&&&**&&&&::"
};
