/* XPM */
static char *_72d726917db448ac642e6c0ac7ba380[] = {
/* columns rows colors chars-per-pixel */
"71 64 128 2 ",
"   c None",
".  c #010001",
"X  c #050209",
"o  c #08030E",
"O  c #0B0B0B",
"+  c #0C0711",
"@  c #0D0912",
"#  c #0F0518",
"$  c #13071E",
"%  c #120A19",
"&  c #121212",
"*  c #1C1C1C",
"=  c #150721",
"-  c #160823",
";  c #180926",
":  c #220C36",
">  c #240D39",
",  c #241533",
"<  c #2B193D",
"1  c #242424",
"2  c #2C2C2C",
"3  c #333333",
"4  c #3C3C3C",
"5  c #2C1047",
"6  c #2F114B",
"7  c #311C46",
"8  c #31114D",
"9  c #351E4B",
"0  c #351354",
"q  c #3D2B4A",
"w  c #3A2153",
"e  c #3E1663",
"r  c #42255E",
"t  c #411767",
"y  c #421769",
"u  c #43186A",
"i  c #491972",
"p  c #4E1C7B",
"a  c #501C7F",
"s  c #4B2C69",
"d  c #4E3665",
"f  c #51257B",
"g  c #57327B",
"h  c #434343",
"j  c #4C4C4C",
"k  c #545454",
"l  c #585758",
"z  c #5A5A5A",
"x  c #616161",
"c  c #6B6B6B",
"v  c #737373",
"b  c #7A757E",
"n  c #7C7C7C",
"m  c #551E86",
"M  c #581F8A",
"N  c #61378B",
"B  c #63239C",
"V  c #6624A2",
"C  c #6925A6",
"Z  c #6D26AC",
"A  c #6F27B1",
"S  c #7128B4",
"D  c #634680",
"F  c #735289",
"G  c #6F409F",
"H  c #7F7A84",
"J  c #7141A1",
"K  c #7A4DA7",
"L  c #7844AB",
"P  c #7D47B1",
"I  c #7B2BC3",
"U  c #7E2CC8",
"Y  c #817D85",
"T  c #8049B7",
"R  c #824AB9",
"E  c #812DCC",
"W  c #8830D7",
"Q  c #8C31DD",
"!  c #8F32E2",
"~  c #9133E6",
"^  c #9634ED",
"/  c #9835EF",
"(  c #9835F0",
")  c #9A39F1",
"_  c #894EC3",
"`  c #8C50C7",
"'  c #8C50C8",
"]  c #9153CF",
"[  c #8F46D4",
"{  c #9656D6",
"}  c #9857D8",
"|  c #9D5ADF",
" . c #B27FD4",
".. c #9D57E1",
"X. c #9F5BE2",
"o. c #9F41F4",
"O. c #A15CE4",
"+. c #A85FEF",
"@. c #A249F4",
"#. c #AA5CF5",
"$. c #AB61F3",
"%. c #AF64F9",
"&. c #B366FF",
"*. c #BB72FF",
"=. c #C47EFF",
"-. c #858585",
";. c #8B8B8B",
":. c #908D94",
">. c #929292",
",. c #9B9B9B",
"<. c #A4A4A4",
"1. c #ABABAB",
"2. c #B4B4B4",
"3. c #BBBBBB",
"4. c #C68DEB",
"5. c #CF8EFF",
"6. c #CD92F5",
"7. c #D497FF",
"8. c #D699FF",
"9. c #C4C4C4",
"0. c #CCCCCC",
"q. c #D5D5D5",
"w. c #DCDCDC",
"e. c #E5E5E5",
"r. c #E9E9E9",
"t. c #F4F4F4",
"y. c #FAF7FD",
"u. c #FEFEFE",
/* pixels */
"                                                                                                                                              ",
"                                                                                                                                              ",
"                                                  2 h 4 .                                                                                     ",
"                                                  1.u.t.v               n n v h                         < g g g g g                           ",
"                                                  1.u.u.r..           . u.u.y.l                     X R ] $.s 7 7 9 R P w                     ",
"                                                  * w.u.u.9.. . . . . . u.u.t.z                   . X.&.G %         % r O.,                   ",
"                                                  . w.u.r.X 2 u.u.y.u.. u.y.,.                  . %.&._ .               N O.@                 ",
"                                                  . w.e.. u.u.u.u.u.O u.u.u.>.                  . &.} .                 . L @                 ",
"                                                  . 2.* u.u.u.u.u.u.u.u.u.y.>.                . +.&.' .                   T ...               ",
"                                                  . 3 t.u.u.u.u.u.u.u.u.u.u.>.                . $.| .                     . ! .               ",
"                                                  . q.u.u.u.u.u.u.u.u.u.u.u.,..               t [ g .                     . Q .               ",
"                                                l 2.t.u.u.u.u.u.u.t.l j u.u.w.4 .           . I A .                       . Q p .             ",
"                                                c u.u.u.u.u.u.u.t.4 q.. u.u.y.z 3.&         . I S .                       C ( A .             ",
"                                                c l 0.u.r.& u.t.l 0.u.y.u.u.t.z 9.t..       . S S .                     . _ ) A .             ",
"                                                z k 9.u.r.O u.;.. { y.u.u.u.t.l 3.r..       . I S .                     . _ ) ( Z .           ",
"                                                  ,.u.u.e.* q.& K @.y.u.u.y.;.. 2.r.u..     . I ( A .                   @ ' ) ( Z .           ",
"                                                  . w.u.u.u.u.u.u.u.u.u.0.,..   . w.r..       B / A .                   F *.) ( Z .           ",
"                                                  . w.u.u.u.u.u.u.<.>.u.x .     l e.-..       . ! E 6                   F *.) ( A .           ",
"                                                  . j y.u.t.k k k >.1.r.j     c w.r..         . ! / Z .                 F *.) I >             ",
"                                                      1 1 1 .   . 9.u.r..   . & 9.2             = / ~ m .             q 4.*.) S .             ",
"                                                      . . . . . ;.y.u.r.. 2 t.r.2 .             . / ( B .             q 5.&.) S .             ",
"                                                    . t.u.u.u.u.u.u.u.u.u.u.u.u.r.O               . ( ~ p             7 #.) S .               ",
"                                                  . w.u.u.u.t.u.u.u.u.u.u.3.O O 2.O               . ( ~ p             w o.^ A .               ",
"                                                1 O w.u.u.9.l u.u.u.u.u.2.j r.e.k 2               . I ( Q 8             i B +                 ",
"                                              x ,.k w.u.>.c 1.u.u.u.u.e.O w.1.r.r.r.z .             X ( Q 8               .                   ",
"                                      . . <.1.t.r.k w.u.. t.2 u.u.u.t.k -.h * k 0.e.r.,.-.. .       . 0 a B ;                                 ",
"                    . .         . . . 3.w.r.r.e.>.  1 t.. t.2 u.u.r.2 . 0..     1 1 1 r.e.9.9.2   . 9.9.Y i ;                                 ",
"                . 4 t.t.* . . & t.t.y.r.r.e.O O O     O . O . O O O . 0.O             & r.r.r.e.O . e.e.>.e ;                                 ",
"            . . . . c r.y.u.u.u.r.r.r.* . . .           . r.e.r.w.q.q.q..           . . 1 e.x . w.r.e.e.>.e ;                                 ",
"          . y.u.* w.e.r.r.r.r.r.3.. . .                 O r.r.r.w.q.q.O           . e.r.9.O ;.r.r.r.w.w.;.t ;                                 ",
"          . y.r.w.. l 9.e.r.r.r.,.                    . r.r.r.e.w.q.q.w.1         . r.e.r.r.e.r.r.r.2 . u E ;                                 ",
"          . ,.>.;.. . 4 q.r.e.-..                     . e.>.>.1.q.q.q.-.-.l       . e.e.>.>.9.r.r.e.e.$ ( E ;                                 ",
"                  3 ,.0.c l l .                     . . l G G D <.w.l ,.<.t.,.k     l l . . 3 0.x r.e.b M E ;                                 ",
"                  4 t.x .                         >.q.O  .5.&.+.d 1 0.u.u.u.u.e.2 . . X E I U q . e.r.w.H -                                   ",
"                  4 t.h                         c y.3 4.8.7.&.&.X.- t.u.u.u.u.u.t.O ~ ~ ( ( ( ~ o r.r.e.>..                                   ",
"                    .                         3 u.u.1 6.8.7.&.$.w q.u.u.u.u.u.u.u.O / ( ( ( ( ( / . e.3.> 8                                   ",
"                                              4 u.u.1 6.8.&.&.$.w q.u.u.u.u.u.u.u.u.. ( ( ( ( ( ( ( X ; V                                     ",
"                                            & u.u.u.1 %.&.&.&.$.w q.u.u.u.u.u.u.u.u.1 E ( ( ( ( ( ( / Q u                                     ",
"                                            O u.u.u.1 %.&.&.&.#.f :.y.u.u.u.u.u.u.u.y.X ( ( ( ( ( / W u                                       ",
"                                              -.y.t.,.s @.@.@.o.I $ t.t.u.u.u.u.t.t.r.X ( ( ( ( ( E 5                                         ",
"                                              3 t.r.r.O / / ( ( ~ B 3 y.r.r.r.t.r.e.r.X ( ( ( I : =                                           ",
"                                                v r.r.w.X # ( ( ( / Z O u.r.r.r.r.r.r.X ~ p o X                                               ",
"                                                c t.r.r.r.w.. . B / ( A O u.t.r.r.r.r.. . .                                                   ",
"                                                  <.r.r.r.w..   . . . . . . z r.r.r.r.w..                                                     ",
"                                                  . w.r.r.w..         . . . . . 3.r.e.e.*                                                     ",
"                                                    ,.r.r.w..                   . <.t.r.9..                                                   ",
"                                                    . y.r.w..                       c t.0..                                                   ",
"                                                  . 2.r.e.3                         . u.e.n                                                   ",
"                                                  . w.r.r..                           * y.,.                                                  ",
"                                                  <.r.r.e..                           O u.,.                                                  ",
"                                                c t.r.e.X O                         X u.e.,.                                                  ",
"                                              j t.r.e.O u.w..                     . u.0.e.r.x                                                 ",
"                                        j j l t.e.r.r.O 2.,..                     . 2.j r.r.;.                                                ",
"                                    v n v v t.r.r.r.n                             . ;.e.r.r.e.2                                               ",
"                                    1.k 2.2.r.r.e.v                             . 3.r.r.r.r.r.3.O                                             ",
"                                    & . t.r.r.r.>.                            . 9.r.e.e.3 t.r.r.w..                                           ",
"                                        X . . . .                             . q.r.r.e.1 t.r.r.r..                                           ",
"                                                                                . r.e..   l r.e.O                                             ",
"                                                                                  . .       . .                                               ",
"                                                                                                                                              ",
"                                                                                                                                              ",
"                                                                                                                                              ",
"                                                                                                                                              ",
"                                                                                                                                              "
};
