/* XPM */
static char *_6e40464a13d46599030d91608f9c247[] = {
/* columns rows colors chars-per-pixel */
"64 64 256 2 ",
"   c #070502",
".  c #120D07",
"X  c #17110A",
"o  c #19130B",
"O  c #1D170E",
"+  c gray9",
"@  c #211A11",
"#  c #241D14",
"$  c #261F15",
"%  c #2A2319",
"&  c #302A1F",
"*  c #202020",
"=  c gray13",
"-  c #222222",
";  c gray15",
":  c #272727",
">  c #282828",
",  c gray16",
"<  c #2A2A2A",
"1  c gray17",
"2  c #2C2C2C",
"3  c #2D2D2D",
"4  c gray18",
"5  c #2F2F2F",
"6  c #312B20",
"7  c #383126",
"8  c gray19",
"9  c #313131",
"0  c #323232",
"q  c gray20",
"w  c #343434",
"e  c #353535",
"r  c gray21",
"t  c #373737",
"y  c gray22",
"u  c #393939",
"i  c #3A3A3A",
"p  c gray23",
"a  c #3C3C3C",
"s  c gray24",
"d  c #3E3E3E",
"f  c #3F3F3F",
"g  c #40392F",
"h  c #453E34",
"j  c #4C473C",
"k  c gray25",
"l  c #414141",
"z  c gray26",
"x  c #434343",
"c  c #444444",
"v  c gray27",
"b  c #464646",
"n  c gray28",
"m  c #484848",
"M  c #494949",
"N  c gray29",
"B  c #4B4B4B",
"V  c #4C4C4C",
"C  c gray30",
"Z  c #4E4E4E",
"A  c gray31",
"S  c #454C5C",
"D  c #555048",
"F  c #505050",
"G  c #515151",
"H  c gray32",
"J  c #535353",
"K  c gray33",
"L  c #555555",
"P  c #565656",
"I  c gray34",
"U  c #585858",
"Y  c gray35",
"T  c #5A5A5A",
"R  c #5B5B5B",
"E  c gray36",
"W  c #5D5D5D",
"Q  c gray37",
"!  c #5F5F5F",
"~  c #606060",
"^  c gray38",
"/  c #626262",
"(  c gray39",
")  c #646464",
"_  c #656565",
"`  c gray40",
"'  c #676767",
"]  c #686868",
"[  c DimGray",
"{  c #6A6A6A",
"}  c gray42",
"|  c #6C6C6C",
" . c #6D6D6D",
".. c gray43",
"X. c #6F6F6F",
"o. c gray44",
"O. c #717171",
"+. c #727272",
"@. c gray45",
"#. c #747474",
"$. c gray46",
"%. c #767676",
"&. c #777777",
"*. c gray47",
"=. c #797979",
"-. c gray48",
";. c #7B7B7B",
":. c #7C7C7C",
">. c gray49",
",. c #7E7E7E",
"<. c gray50",
"1. c #808080",
"2. c #818181",
"3. c gray51",
"4. c #838383",
"5. c #848484",
"6. c gray52",
"7. c #868686",
"8. c gray53",
"9. c #888888",
"0. c #898989",
"q. c gray54",
"w. c #8B8B8B",
"e. c gray55",
"r. c #8D8D8D",
"t. c #8E8E8E",
"y. c gray56",
"u. c #909090",
"i. c gray57",
"p. c #929292",
"a. c #939393",
"s. c gray58",
"d. c #959595",
"f. c gray59",
"g. c #979797",
"h. c #989898",
"j. c gray60",
"k. c #9A9A9A",
"l. c #9B9B9B",
"z. c gray61",
"x. c #9D9D9D",
"c. c gray62",
"v. c #9F9F9F",
"b. c #A0A0A0",
"n. c gray63",
"m. c #A2A2A2",
"M. c gray64",
"N. c #A4A4A4",
"B. c #A5A5A5",
"V. c gray65",
"C. c #A7A7A7",
"Z. c gray66",
"A. c #A9A9A9",
"S. c #AAAAAA",
"D. c gray67",
"F. c #ACACAC",
"G. c gray68",
"H. c #AEAEAE",
"J. c #AFAFAF",
"K. c #B7BFAF",
"L. c gray69",
"P. c #B1B1B1",
"I. c #B2B2B2",
"U. c gray70",
"Y. c #B4B4B4",
"T. c gray71",
"R. c #B6B6B6",
"E. c #B7B7B7",
"W. c gray72",
"Q. c #B9B9B9",
"!. c gray73",
"~. c #BBBBBB",
"^. c #BCBCBC",
"/. c gray74",
"(. c gray",
"). c gray75",
"_. c #C0C0C0",
"`. c #C1C1C1",
"'. c gray76",
"]. c #C3C3C3",
"[. c gray77",
"{. c #C5C5C5",
"}. c #C6C6C6",
"|. c gray78",
" X c #C8C8C8",
".X c gray79",
"XX c #CACACA",
"oX c #CBCBCB",
"OX c gray80",
"+X c #CDCDCD",
"@X c #CECECE",
"#X c gray81",
"$X c #D0D0D0",
"%X c gray82",
"&X c #D2D2D2",
"*X c LightGray",
"=X c gray83",
"-X c #D5D5D5",
";X c gray84",
":X c #D7D7D7",
">X c #D8D8D8",
",X c gray85",
"<X c #DADADA",
"1X c gray86",
"2X c gainsboro",
"3X c #DDDDDD",
"4X c gray87",
"5X c #DFDFDF",
"6X c gray88",
"7X c #E1E1E1",
"8X c #E2E2E2",
"9X c gray89",
"0X c #E4E4E4",
"qX c gray90",
"wX c #E6E6E6",
"eX c #E7E7E7",
"rX c gray91",
"tX c #E9E9E9",
"yX c #EAEAEA",
"uX c gray92",
"iX c #ECECEC",
"pX c gray93",
"aX c #EEEEEE",
"sX c #EFEFEF",
"dX c gray94",
"fX c #F1F1F1",
"gX c gray95",
"hX c #F3F3F3",
"jX c #F4F4F4",
"kX c gray96",
"lX c black",
"zX c black",
"xX c black",
"cX c black",
"vX c black",
"bX c black",
"nX c black",
"mX c black",
"MX c black",
"NX c black",
"BX c black",
"VX c black",
"CX c black",
"ZX c black",
"AX c black",
"SX c black",
"DX c black",
"FX c black",
"GX c black",
"HX c black",
"JX c black",
"KX c black",
"LX c black",
"PX c black",
"IX c black",
"UX c black",
/* pixels */
"7 & & 7 D h g # O O O O % & % & # O o O # O # # % & % 6 & 6 6 qX0Xh h g h g h g 7 g g h g 6 6 % % & 7 g & % % 7 & % o % O .   & ",
". o o O & & # O o . . . .       .             . O # 6 6 6 h 6X[.*X7Xo   . # o . o % % o o . .           X o .     .           o ",
"  .       . # & . # % & % o o . o . o o % % O # 6 # o O O ,XG.>.n.$X5XD D D D g & g g & & O g g D D X # % D D g g D D D g D g D ",
"7 % # & & & % % & 7 g 7 & 7 7 # % # % & D D g & h g 6 6 <XJ.%.7.0.V.%X5XD D D & & & % % & % % % o # o $ 7 7 $ @ # O 7 D 7 & & D ",
"D 7 O % 7 7 & o O # % % & 7 g $ . % % % D g j 6 . 7 & <XY.6.6.S.c.u.A.#X5XD g 7 & & & & 7 g & X O O o & # g j O   O . o # o O D ",
"D & . # % 7 g O o . o # % # %     % O O D & &     g <XT.8.1.6.7.s.f.y.C.@X5Xg D g 7 g g & &     & & # 6 # & 7     O o o % & O g ",
"D # . . o # & o . . . o O # .   & % # % D & .   & ,XR.9.1.5.@.F @.a.s.y.V.+X5XD D D D D D X   7 g g # g % D .   # # O o # 7 # D ",
"# . . . o O O o . . . o O # # & 7 & % & D 7 % & 4XQ.0.<.4.&._  .=.6.p.f.i.B.oX5XD D D D g g g D g g # & & 7 % & # % # o . # # D ",
". . . . O O . . o . . O . O O # % % % % g 7 & 4X^.e.1.4.@.( $.z.t.=.;.u.g.i.N.XX5XD D g D D g g g 7 # 6 g g 7 g % % & O % % O D ",
". . . # # & 7 o o   o # . . o O & O % & h g 4X(.r.2.6.o.L ' 9.t.0.@.T [ r.g.i.M.XX5Xg D D D 7 7 g 6 # & g D D D D 7 % O # % O D ",
". . o & 7 g g O o o & & o o o # % O # % h 4X).y.3.9.X.N L ;.1.X.{ ( I B _ r.h.i.m. X5XD D g & % 6 % # $ g D D D g & & O % D & D ",
"O O # 7 g h D & % # g h % % # O o O % O 4X_.u.2.9.o.b m _ #...^ K K I U I  .t.h.p.v.}.5XD 7 % & 6 6 $ 7 D D D D % % # O % & % D ",
". . . # g h D g O O 6 h & % o o o # # 4X].a.3.9.X.z f R [ [ ) T J A I ]  .( O.y.g.t.x.[.5Xh & g g h $ 7 g D D D g g & o % 7 % D ",
"o . . % g h h & O o 6 6 % O o O O # 4X[.d.4.9.X.d w Z ~ _ _ W U P U W | <.<...*.u.s.t.l.].5X7 7 g g # % g & % & & # # # O % # D ",
"O # O 7 D h h % # O % 6 # # O O o 4X{.g.4.0.O.f 4 k K / ' ` ^ Q Q / ' O.4.d.d.8.q.d.s.t.k.].5Xg g 6 O # g g & & # # 7 % # O O   ",
"% % # g D D h % O O # # . o o o 4X|.h.3.9.$.k 3 i N U _ | } ] _ ) [  .*.8.l.R.Q.B.s.p.d.u.h.`.5X% 6 o % g # % # % h h g & # o . ",
"7 # # % g D D g . O o O o . . 4X.Xj.3.9.;.F t d m F W [ .. .} [ [ o.$.,.e.n./.2X@Xl.<.0.h.u.h._.5X# o o . o . % h h D 7 % & & & ",
"& # % % % D D 7 o o o . o o 4XXXk.3.9.1./ F U I J T Q { { +.@.%.O.-.<.9.p.V.}.,X*XV.| ( 5.j.p.j.).5X$ O # % # D D g D D D D D & ",
"# # O # # & 7 % o . . . . 4XoXl.2.9.4.} ( *.&.} ] ` O.*.5.s.k.v.x.c.M.M.S.R. X%X^.q.` L E 3.l.a.g./.5Xh g g & g # & g D % & &   ",
"% & # # # # % O . . . . 4X+Xx.<.4.5.o.{ 3.u.q.5.0.t.M.D.).|.#X@X&X#X&X$XOX%X@X.Xl.X.' U V L ,.l.a.s.^.5Xg & % # % # # # O # % O ",
"g 7 7 7 & 7 & # . . . 4X@Xv.1.3.2.&.+.0.h.s.l.G.U.}.%X-X5X6X8X9X9X9X0X9X6X5X2X#XI.0.O./ C b F ,.k.i.a.!.5XD D D D g & o % g & % ",
"h g g g 7 & % o . . 4X$Xv.2.6.1.@.*.a.b.l.m.(.@X-X8X7X8X9X0XqXwXwXeXeXeXwXqX0X2X:X_.l.1.( C m J ,.h.u.i.Q.5XD D & # # O # & % & ",
"D D D 7 7 g & # % 4X$Xn.<.8.2.( ) 0.M.M.Z.|.1X3X8X9X0XqXwXeXrXyXuXiXiXiXuXtXeXqX7X5XOXC.7.' P J R 2.f.u.u.W.5X5Xg & & O % D & 7 ",
"D D D D D D D g 4X&Xn.,.6.3.E m [ t.h.V..X8X8X9X0XqXeXrXtXuXpXsXfXfXgXgXdXsXuXtXwX0X8X@XZ.9.@.} ] } 5.f.u.t.E.5X5X7 % O % & % & ",
"D D D D D D D 4X=XM.,.6.3.Y k Y X.1.d.].8X8X0XqXeXtXyXiXpXsXdXgXhXkXkXkXjXgXsXiXtXwX8X4X Xm.w.5.4.*.@.9.f.u.r.R.3X5X& # # % # 7 ",
"D D D D D D 4X-XB.,.6.4.L y P { o.3.W.6X8X9XqXeXtXuXiXpXaXsXdXfXgXjXjXjXjXgXdXaXyXeX0X3XoXI.z.y.y.u.1.*.7.f.u.e.Y.2X5Xo o # % & ",
"D D D D D 4X:XV.,.6.5.H 4 V } ..$.N.;X6X9XqXeXtXyXuXiXiXiXiXpXpXaXsXsXdXsXsXaXiXtXwX8X%X_.U.B.d.t.p.p.:.X.3.f.i.e.U.1X5XO 7 % % ",
"D D D D 4X,XZ.>.5.7.J < b ~  .#.i.^.-X6X0XwXeXtXtXtXtXrXtXrXrXrXrXtXtXtXrXtXrXeX8X5X=X'.P.V.b.g.r.8.7.4.@.' <.f.i.e.P.,X5X7 % O ",
"D D D 4X<XS.>.5.8.K , v ~ ..=.9.b.Q.=X3X7X9X0XwXwXeXqX7X7X3X2X2X1X1X1X<X<X>X>X;X*X$X.XH.l.l.a.i.q.>.O.*.:.X.` >.f.i.e.L.,X5X# % ",
"7 g 4X1XD.>.5.0.T , l ! O.<.w.f.b.R.^.oX+X*X,X2X<X1X:X*X#XOX X}.'.'._.(./.^.W.R.Y.I.H.x.j.l.u.0.2.=.| ] +.-.} Q $.f.a.e.G.:X5X7 ",
"% 7X3XS.>.5.q.! r n U  .4.u.x.h.l.V.C.P.Y.!.[.`._.^.!.T.I.J.D.Z.N.m.b.v.c.l.f.s.p.y.w.t.t.p.y.4.$.O.' / ^ | +.W M =.z.y.6.J.-X'.",
"K.0XP.%.6.w.] r C _ | ,.w.c.N.j.j.N.c.N.b.M.n.b.v.k.h.a.u.t.r.q.7.5.4.2.1.>.-.*.&.@.%.-.:.1.7.6.&.X.=.Q R R ~ ~ _ { 9.y.u.d.y.x.",
"Q.Z.w.r.s.5.K / [ } @.<.t.M.I.n.h.s.r.q.7.5.2.<.>.:.-.=.%.+.O.o.} } { [ ' ) ~ ~ Q / _ ] } ..@.-.=.x.^.*.P H F } 3.8.t.y.f.o.v S ",
"r.[ 5.N.x.z.t.d.4.X.@.>.t.A.~.B.u.9.<.&.$.o. .] ` ( ~ ! W U I P P L K H H Z C C F K K L T W ! _ r.`.T.2.T m ~ =.y.m.p.e.O.F N & ",
"% ] #.e.z.m.Y.C.k.6.+.&.5.v.*X/.a.;.O.| [ _ ^ W U K A C M b c x x k d s a s a f l v v m V B C ! 5.(.{.,.F ~ @.w.n.h.e.o.K G % % ",
"# 7 o.@.8.z.A.T.Z.j.9.@.*.8.P.'.b.%.( ~ Q T I J F B m x k a y r q 9 4 2 2 2 5 9 w t t u u y f Z v.3Xb.~ } :.e.b.h.e.O.L J % & & ",
"& % % o.@.8.z.Z.T.A.v.q...*.V.W.N.4.^ J J G C N m c l s i e 9 4 1 , ; ; ; ; > > 1 1 1 ; - 2 9 2.-XN.( $.r.a.b.h.e.+.P J % % & % ",
"% # % % o.+.8.z.Z.T.G.m.6.~ ,.Y.I.a.#.I m m n c d p u r 9 3 < , , ; ; ; > , ; ; ; ; * + = < X.|.j.I X.s.l.n.h.e.#.P J % # # % # ",
"o o o O . o.O.7.l.C.W.G.l.:./ 2.J.B.9.} V k z s r q 0 q 4 , ; 1 1 ; ; , 2 1 , > , : = : 8 ] I.e.v W 6.z.M.j.r.%.E L & # # O % & ",
"O o . O o . o.o.5.f.Z.E.Z.u.6.| -.l.n.4._ B d i 8 2 5 9 9 1 1 9 9 1 > 2 5 5 2 < 5 3 l N &.R.8.u V ;.d.B.z.t.&.W U % # O O o % & ",
"O o o 6 % . . o.o.4.h.V.U.F.Y.a.( :.I.R.y.,./ N i 8 r 8 8 4 4 8 5 4 1 4 9 i t x m { q.h.%XN.L v ` y.G.m.u.=.W U O O O O O O % # ",
". o # 6 6 O . o o.o.4.d.Z.E.T.D.w.;.z.*XXX^.P.8.*.' U Z k x i s a f x V R | :.d.g.}.Q.{.E.*.( ! <.M.V.h.2.` E % O # # # # O # O ",
". o % 6 6 # o O o o o.7.N.G.P.A.x.b.c.m.~.Q.oXXX).).C.m.i.y.q.7.t.q.z.l.T.E.#X.X}.Y.t.e.} 9.z.q.c.b.a.3.+.` % % # # # % % O # # ",
". # % % % 6 % % % % # &.0.z.n.N.F.XX/.6.,.6.9.Z.L.`.]._..X[.@X[.%X].@X~.`.D.P.w.<.F C N %.^./.A.m.f.:.~ ) o O O O O # & % # O O ",
". # 6 % 6 & 6 % O O O O } >.r.z.U.}.+XC.=...R ) @.3.r.O.>.<.1.p.t.=.' [ P =.3.T M w n U s..X XF.j.3.( L o o o o O # % & % # O o ",
". O O # 6 # # # O # % 6 % [ *.s.F./.^.P.j.6.O.[ w.k.:.M q i F =.) P = e y 2.P.n.~ H [ 6.j.U.`.Y.0.` R o o . . o # # % % # # O O ",
". # O O # # # # % g g g 7 h / -.v.D.V.V.A.z.5.6.).#Xs.[ H I 9.).G.4.Y F ' c.@XXX;.} 7.j.m.M.M.f.] U . o o . o . o O # # O O o O ",
". # O O O O . . % g 7 7 & 7 g / ;.t.d.b.B.M.h.j.~.#XH.6.*.,.z.*X:Xd.#.{ ] f.=X/.q.q.h.n.c.d.5.{ P o . o o . . o o o # # o # O o ",
". O o O o o o . # 6 # 6 O O # O ` %.9.d.b.M.b.D..XXXC.f.a.t.C.%X[.s.-.#.X.*.L.OXV.k.m.v.a.3.} ! . O o o o o 6 # . . o O O % % # ",
"o o o # o O % % % % % 6 O O # O o [ $.8.d.v.V.!.XXE.A.G.N.u.h.[.].t.$.O...-.l.I.D.B.m.s.3.} ! o . O o O O O % o . O O O o o # . ",
"o # # % O # % # O # o # o O O o . . [ #.7.s.v.H.W.~._.Q.B.f.c.P.n.3.%...| X.p.G.B.c.a.3.] W # O o O o O O o o . . O # # o o o . ",
". # % % O # # O o o . o . o o . o . o ' +.6.s.v.D.].&X(.V.f.i.l.h.3.#. .@.<.q.c.g.w.1.] U o # O . O O O o o O . o . O O o o o . ",
"o # % o . . o o o .       . . . o . o o ` +.6.s.v.L.|. XA.i.9.8.6.-... .,.u.l.l.9.&.] R % o # O o O O O o O O o o # O O o o o O ",
"o % # o . . o O . . . . o . . . . . O o # ` O.6.s.v.H.W.J.a.:.=.=.X.} *.0.l.x.0.*.[ ! 6 & o & # O o o o o O o o o # # o o o o o ",
"O # o o o O o O o O o . o . O # O O % # % g ` o.5.a.c.Z.Z.j.,.[ [ } $.3.h.c.q.*.} / # g % O # % o O o o . O . . . O O o . o . . ",
"# # O O o . . . . o . . . . o o o O & # # g D ` o.4.a.c.N.k.9.o.( O.3.f.c.w.-.| / . . . . . O O . . . . . . . . . . o . . o o . ",
"o o . . . o . . o o .   . . o O . # & % % g D D ` X.3.p.x.n.p.2.-.;.s.v.w.-.X.`                 . . .         . . . . . . . . o ",
". . . . . . . . . . O . o O # % # % 7 7 & D D D g ` X.3.p.x.n.j.d.j.b.e.;.X.`                                   .       . . . o ",
"o o . . o o # o o o . O % # # # % & 7 7 7 D D g g # ` ..2.p.b.V.x.C.t.;.X.`         o .     . .     . . . o . . . . .     . . o ",
". . . .     . . o . . o . o O O . . O o o o 7 # . . # `  .2.p.u.4.9.;...`         . O O   o # % # O % % # # o o   .         . O ",
".         . .   . . . . . . . O . . .       o % 7 . 7 O `  .<.e.w.$.} !     O .   . @     . . # % O & o O .   .       . . . O O ",
". . .   . .     . . o . o o . o . o .   o # & 7 D 7 7 o @ ' X.u.G.%.^   . o 7 O   .       .   . O . . . o O o o o O O O O o # O ",
"o . o O . . . . o o o o o o o % # o o . & g D D D D g 7 D D | *.$./ @ @ X % h 6 . o . o .     o 6 o o . O o o # O O # o o . o # ",
". O # # o . . . . . . o O o # % % o # o & g 7 D D 7 D D g D D J f % @ o # $ % 6 O . # 7 O o . o 6 7 7 & & 7 & & # 7 # # o . o # "
};
