/* XPM */
static char *_53163a0b1084a27ee10472c0bd4bd04[] = {
/* columns rows colors chars-per-pixel */
"64 64 214 2 ",
"   c #070502",
".  c #120D07",
"X  c #17110A",
"o  c #1B150C",
"O  c #000010",
"+  c #0C0B1C",
"@  c #0B0518",
"#  c #150D1B",
"$  c #1E121F",
"%  c #241D14",
"&  c #2A2319",
"*  c #302A1F",
"=  c #121229",
"-  c #121829",
";  c #1C1B2A",
":  c #181522",
">  c #191931",
",  c #231725",
"<  c #1A2132",
"1  c #24222E",
"2  c #312B20",
"3  c #3A282C",
"4  c #383126",
"5  c #232434",
"6  c #2A2B35",
"7  c #232439",
"8  c #242939",
"9  c #2B2B3A",
"0  c #292535",
"q  c #312A37",
"w  c #2D313D",
"e  c #31323D",
"r  c #40392F",
"t  c #453E34",
"y  c #4C3533",
"u  c #52483D",
"i  c #62443B",
"p  c #2E3142",
"a  c #323543",
"s  c #353A46",
"d  c #3B3C4B",
"f  c #393B48",
"g  c #2C2F42",
"h  c #4E3E42",
"j  c #3D434D",
"k  c #3E4451",
"l  c #43434E",
"z  c #4B454C",
"x  c #555048",
"c  c #424451",
"v  c #444A53",
"b  c #4B4C53",
"n  c #464E5A",
"m  c #4A4E5B",
"M  c #4B4653",
"N  c #4C5255",
"B  c #4D525B",
"V  c #4B545A",
"C  c #52545B",
"Z  c #545B5D",
"A  c #5A5C5E",
"S  c #55535A",
"D  c #514D55",
"F  c #655650",
"G  c #5A625F",
"H  c #545B63",
"J  c #5A5E64",
"K  c #565866",
"L  c #555969",
"P  c #645C64",
"I  c #5B6265",
"U  c #5C636B",
"Y  c #5D666B",
"T  c #5E6672",
"R  c #646264",
"E  c #63656C",
"W  c #636B6C",
"Q  c #696D6E",
"!  c #656869",
"~  c #6B716E",
"^  c #646B73",
"/  c #6A6D73",
"(  c #6A6E7B",
")  c #666774",
"_  c #6C7374",
"`  c #6C757C",
"'  c #6A7479",
"]  c #727576",
"[  c #717976",
"{  c #72757C",
"}  c #737B7B",
"|  c #7A7D7D",
" . c #787C75",
".. c #746A6E",
"X. c #72695B",
"o. c #866F56",
"O. c #867C79",
"+. c #937765",
"@. c #7C857E",
"#. c #91857A",
"$. c #AD9474",
"%. c #6E7981",
"&. c #747D84",
"*. c #787C86",
"=. c #887D84",
"-. c #768284",
";. c #7C8484",
":. c #7C858C",
">. c #7C898D",
",. c #78858A",
"<. c #7C8A92",
"1. c #7D8792",
"2. c #848684",
"3. c #8B8484",
"4. c #848B85",
"5. c #848C8B",
"6. c #8A8D8A",
"7. c #868689",
"8. c #938B89",
"9. c #8B928B",
"0. c #889089",
"q. c #838C93",
"w. c #878B95",
"e. c #928D94",
"r. c #849294",
"t. c #8B9493",
"y. c #86939B",
"u. c #8C959D",
"i. c #8D999D",
"p. c #8B9897",
"a. c #939B93",
"s. c #919A9B",
"d. c #969598",
"f. c #959C8F",
"g. c #A39D9C",
"h. c #A29995",
"j. c #99A39C",
"k. c #A5A09E",
"l. c #8D99A1",
"z. c #8D96A1",
"x. c #939CA3",
"c. c #9B9BA6",
"v. c #A29BA3",
"b. c #9CA4A3",
"n. c #96A4AB",
"m. c #9BA3AB",
"M. c #9CAAAC",
"N. c #95A3A5",
"B. c #9BA6B2",
"V. c #A3A1A2",
"C. c #A1AAA3",
"Z. c #A3ACAC",
"A. c #ABA6A8",
"S. c #B2ACAB",
"D. c #ABB3AA",
"F. c #A8B3A9",
"G. c #B3BAAE",
"H. c #B6B4AB",
"J. c #A3ADB3",
"K. c #A9AEB5",
"L. c #B2AEB4",
"P. c #ABB5B5",
"I. c #ABB3BB",
"U. c #A9B7BA",
"Y. c #B5BBB2",
"T. c #B4B4B9",
"R. c #BBBBBD",
"E. c #B6B6B7",
"W. c #C4B8BC",
"Q. c #B8C0B6",
"!. c #C8CEBD",
"~. c #C9D4BD",
"^. c #B3BDC3",
"/. c #B4BDCB",
"(. c #BBBCC3",
"). c #AFBEC0",
"_. c #C2BDC4",
"`. c #B5C2CB",
"'. c #BCC5CE",
"]. c #BCC7C8",
"[. c #BEC6D4",
"{. c #C5C5CA",
"}. c #C8C8CA",
"|. c #CED6C6",
" X c #CED5CE",
".X c #D6DECE",
"XX c #D5D6CE",
"oX c #CCCCD2",
"OX c #C4CED3",
"+X c #D2CCD7",
"@X c #CCD2D3",
"#X c #D5D5DD",
"$X c #D9DBDD",
"%X c #D5D4D7",
"&X c #D2CCCE",
"*X c #D6E0D8",
"=X c #CED6E7",
"-X c #CEDEE7",
";X c #DBDBE3",
":X c #D9D7E4",
">X c #DFE1E5",
",X c #E3E4E6",
"<X c #E4E4EB",
"1X c #EBEBEC",
"2X c #E9E6EA",
"3X c #EDEBF4",
"4X c #EAE8F5",
"5X c #F1EEF6",
"6X c #F4F4F4",
"7X c #F3F3FA",
"8X c #F9F6FB",
"9X c #FEFDFE",
"0X c #F6F8FC",
"qX c #F1EFEE",
/* pixels */
"4 * * 4 x t 4 % o % o o & 2 & 2 % o X o & o % % & * & * & * 2 *X-Xr u 4 t 4 u 4 4 r r t 4 2 2 & & 2 4 4 2 & & 4 2 & o & o X   2 ",
". o o o * * & o o . . X .       .             . o & * * * u .X].`.-Xo     & o . o & & o o X X           X X .     .           X ",
"  .       . % * . % & 2 & o o . X . X X & & o & 2 & X o o ~.D.;.>.`.-Xx x x x 4 * r r * * o t 4 x x o % & x x 4 4 x x x r x e x ",
"4 & % * * * & & * 4 4 4 2 4 4 % & % * 2 x x 4 4 u 4 2 2 ~.D.;.` >.i.`.-Xx x x 4 * * & & * & & & X % o & 4 4 & % & o 4 x 4 * * x ",
"x 4 o & 4 4 * o o % & & 2 2 t % . & & & x 4 u 2   4 * ~.G.4._ >.u.1.z.`.-Xx 4 4 * * * * 4 r * o o o X 2 % 4 u o   o . o & X o x ",
"x * . % & 4 r o o . o % & % &     & o o x * *   . 4 |.G.2.^ I Y -.q.>.i.`.-Xu S r 4 r r * *     2 2 % 2 % 2 4     o X X & * o r ",
"x % . . o % * o . . . o o % .   * & & & x 2 .   2 |.G.5.Q H V N I -.<.<.l.`.@Xx x x x x x o   4 t 4 & t & x X   & % o X % 4 & x ",
"% . . . o o o o . . . o o % % 2 4 2 & 2 x 4 & * |.G.0.^ J D V I W { ,.<.>.l.`.-Xx x x x t 4 r S 4 t % 2 2 4 & 2 % & & X . % % x ",
". . . . o o . . o . . o . o o & & & & & r 4 * |.G.0._ I N N G @.5.' ' ,.<.1.z.`.-Xx x t x x t 4 4 4 & 2 r r 4 r & & * o & & o x ",
". . . & & * 4 o X   X % . . o o * o & * u r |.Y.0.^ I V v N ! ;.r.` U U &.w.>.z.`.-X4 x x x 4 4 t * % & r x x x x 4 & % % & o x ",
". . X * 4 4 e % o X 2 * o o X % & o & & r |.G.9.` I j j j G _ t.w.( ) H I &.q.q.x./.=Xx x 4 2 & * & & % r x x x r * * o & x * x ",
"o o & 4 4 u x 2 & % 4 u & & % o X o & o |.G.;.@.%.H j j Z G _ t.%.m %.%.I I >.i.w.y./.-Xx 4 & 2 4 * & 4 x x x x & & % o & * & x ",
". . . & 4 u x 4 o o 2 t 2 & o X o % % |.G.2._ t.>.c a v Z N Q P.n.H U w.1.T _ i.l.1.u.`.-Xt 2 t 4 u & 4 r x x x r 4 * X & 4 & x ",
"X . . & t 4 u & o X 2 2 & o o o o % .XQ.4._ I { t.U k N C C  .P.u.J Y w.x.u.r.x.r.<.:.u.`.-X4 4 t 4 % & r 2 & * 2 % % % % & % x ",
"o & o 4 x u u & & o & 2 % % o o X .XQ.4.~ ! Z J { T n C H C [ P.m.U I q.M.P.F.0.} :.:.:.z.`.=X4 4 * o % r r * * & % * & % o o   ",
"& & & 4 x x 4 * o o % % . o o o .XQ.3.Q Y C d N ;.' B B I I [ j.u.^ ^ q.K.P.j.>.5.>.:.q.1.y./.=X& * o & 4 % & o & u u r * & X . ",
"4 o % & 4 x x u . o o o o . .  XQ.4.Q J Z b l b ^ ( H V Y Y _ 5.>.^ _ u.Z.j.;.N.P.5.{ :.y.<.z.`.-X% o o . o . & t t x 4 & 2 2 2 ",
"* & & & & x x 2 o X X . X o  XR.b.| J Z V N Z A Z H L ` t.9._ _ %.%.l.P.b.;.W &.b.a.W W -.q.r.m./.-X% o % & % x x 4 x x x x x 2 ",
"& & o % & & 4 & o . . . . XXY.6.7.*.^ H G Q ] G Z v U '. X{.b.N H I.:X$X X_ v E 5.;.N N H 5.N.>.q./.=Xt 4 t 2 4 & 2 4 x & 2 2   ",
"& & o & % & & o . . . . .XY.2. .j.5.( ^  .9.M.f.R m %.I.I.m.' j j q.^.{.T. .L ( c.x.( V Y 9.<.,.&.z./.=Xt 2 & % & % & % o % & o ",
"4 4 4 4 & 4 * & . . . .XY.4.Q ) >.p.,.0.C.@X@X{.=.d L d C c 0 0 6 9 D ) C ) K c.2X=X/.*._  .%.-.1.:.z.`.-Xx x x x 4 2 o & 4 2 2 ",
"u t 4 u 4 * & X . . .XQ.4.Q W R ! } <.n.*X;XZ.t.m g s k ..E ) ! E / K P M d c { {.:X<X%X>.} I V &.<.>.u.`.-Xx x 2 % % o % 2 & 2 ",
"x x x 4 4 4 * % & |.Y.t.} E I Z A G %./.'.q.U l f w.d.W.{.h.h.O.3.T.A._.T.7.w.M J c.I.(.x.Y s m ( :.<.>.z./.-Xx t 2 2 o & x 2 4 ",
"x x x x x x x 4 |.Y.9.;.q.' N H Q W B *.P k c b v.;X5XqXH.8.X.F g.oXg.A.1X,X:XK.S J ( ` %.m L ) ` *.q.r.:.y.`.=Xx 4 & o & 2 & 2 ",
"x x x x x x x |.G.4.] ] :.,.Y W ;.t.U g a M P v.:X7X6XS.+.h.+.+.W.:XL...V.6X9X5XL.P S C n %.n.y.i.5.u.<.<.&.y./.=X& * % % & % 4 ",
"x x x x x x |.G.4.Q J U T ' %.:.C.t.c g l P 3._.:X5X$Xh.$.$.$.+.W.&X=.h O.&X8X8X:Xc.P D v ) B.I.Z.b.;.' &.:.>.z./.=X& X o % & * ",
"x x x x x !.G.2.~ J n V H H ' 5.6.m 9 l J =.A.W.:X5X&X..o.$.$.x ..=.h , M _.8X7X#XR.8.P D v P x.Z.7.I I ^ &.:.,.z.`.=X# o 4 & & ",
"x x x x !.H.2.Q I n s n T I I _ c 0 z P #.v.(.#X2X2X=.3 i +.F , $ 3 , O O ..2X7X4X+XL.6.R D j L ` C I _ Y ( &.,.,.<./.=X& 4 & o ",
"x x x !.F.2./ J n g s H { ] J e 0 d K O.h.E.:X3X8X%XP : 3 y % @ @ O O O O e A.6X0X>X{.S.3.R D q 7 k Y ` _ ~ ` -.,.,.z./.=Xo % & ",
"4 4 !.F.2.Q J B s w c ' 5.*.b 0 6 D =.h.S.oX1X9X8X&Xm O @ # # O O O O O O 9 V.9X9X3XoXL.k.=.P d = > n Y ~ _ W T %.,.,.y./.=X4 4 ",
"* |.F.@.~ Y B j j v I -.s.| l = q { h.R.{.,X9X9X8Xe., O O O O O O O O O O : 2.6X9X9X,X{.L.g.3.z = - s n Z W W V n %.1.*.y.`.-Xx ",
"Q.F.>.[ [ W C v N Z W 5.s.@.b w D 8.v._.;X8X9X9X8X8., O O O O O O O O O O : 2.0X9X0X7X$XR.A.8.P f f j c N Z A b B ` >.,.-.i.B.<.",
"a.&.&.r.r.<.' ' Y I Y @.s.d.:.D.v.=.v.E.:X5X0X9X8X6.: O O O O O O O O O O + | 6X9X0X7X%XL.v.3.d.e.7.u.J b N v I 2.#.@.:.5._ v n ",
"& E %.t.z.l.y.<.@.W I _ @.d.$X8XoXv.A.T.:X3X8X9X6X8.: O O O O O O O O O O + *.6X9X0X7X#XL.g.8.h.%X>X^.^ v l S @.a.>.;.4.[ s - 2 ",
"& 2 / *.w.i.N.l.<.-.W Y Q 9.$X0X#XL.L.{.<X7X9X9X9Xd.6 O O O O O O O O O O ; e.9X9X9X0X4XoXA.8.S.3X7X'.T k B  .5.r.0.0.` s = & & ",
"% 4 4 / { w.x.m.n.r.;.W I  .Q.1X5X{.R.oX:X7X9X9X6XV.0 O O O O O O O O O O , e.6X9X9X9X3X&XA.W.2X9X7X[.%.H | 5.5.4.0.[ s = & * 2 ",
"* & & & / { w.x.M.n.i.-.Z I j.|.1XqXXX}.:X4X8X9X9X;XK O O O O O O O O O O L $X9X9X9X9X1X}.&X1X0X0X#Xy.-.t.0.4.;.5.` a = & & 2 % ",
"& % & & o / { w.l.M.n.<.^ V Y j.{.,X6X;X;X4X8X9X9X3Xw.1 O O O O O O O O ; 7.4X9X9X9X9X3X;X6X5X<X/.*.>.F.j.4.;.5.[ s = & % % & % ",
"X o o o . . / %.q.x.n.l.-.W Z ~ p.K.$X8X7X5X9X9X9X5Xd.e + O O O O O O O 0 e.6X9X9X9X9X9X9X,X@Xm.T ( M.D.0.| 6.] f - 2 % % o & 2 ",
"o o X o o . . ^ %.q.s.n.i.,.' ^ ] -.s.%X9X0X9X9X9X9X,X{ + O O O O O O @ / ,X9X9X9X9X9X9XoXN.,.j b t.F.0.@.4.] s - & & o o X & 2 ",
"o o o * & . . o ^ ` w.l.x.y.<.<.;._ ~ *.}.9X9X9X9X9X9X;XU + @ O O O O K +X9X9X9X9X9X9X{.~ k 8 w  .a.6.2.>.' f - o o o o o o & & ",
". o % * * o . o . ^ ` q.u.u.t.n.m.*.E C I R.9X9X9X9X9X8X:X( d 9 6 e ) +X4X9X9X9X3X<XL.v 5 < w [ 9.7.2.7.` d ; & o & % % & o % o ",
". o & * 2 % o o o o ^ } q.y.q.l.I.m.@.W d m ^.T.{.9X9X9X9X2XA.A.V.A.,X9X8X7X7X(.u.q.e : ; w ~ 0.4.2.7.] f - & & & % % & & o % % ",
". % & & & * & & & & % Q ` <.r.<.i.M.M.p.&.c M m K L.T.(.oXoX;X>X*X$X}.}.(.c.c.c 9 5 : 9 j @.#.@.;.7._ s ; o o o o o % * & & o o ",
". % 2 & 2 * 2 & o o % o ^ ` ,.>.r.s.U.`.M.q.L K p a d j L J 1.w.1.*.H B a 6 7 5 p w f R @.4.@.@.5.] f = o X o o o % & * & & o o ",
". % o % 2 % % % o & & * & ^ _ *.:.q.N.U.).U.N.q.( n l a a 9 a 9 w 9 1 6 < p d L L n R 4.9.4.;.>.[ d > o X . . X & % & & & o o o ",
". % o o % % % % & e t 4 4 t W / &.>.q.l.J.I.J.m.y.:.` ( E H Z b b b b b B L *.q.%._ 9.f.4.#.4._ f > . o X . X . X o % % o o o o ",
". % % o o o . . 2 4 4 4 2 4 r E ( &.>.<.u.B.K.J.m.m.m.m.x.6.[ W ! W W Y ' >.w.z.u.a.a.0.2.0.@.j > o . o o . . o X o % % o & o o ",
". o o o o o o . % * % * o o & o E ( &.:.5.u.U.U.I.^.`.^.U.J.p.@.[ _ ^ ` q.z.z.c.Z.b.0.4.0.[ j < . o o o o o 2 % . . o o o & & % ",
"o o o % o o & & & & & * o o % o X Y ( &.<.w.l.M.^.'.OX{.Q.U.M.0.| _ ' %.5.z.B.D.C.f.4.0.[ j < o . o o o o o & o . o % o o o % . ",
"X % % & o % & % o % o % o o o o . . T ` :.q.r.N.U.[.OX].Q.U.Z.d.;.] _ ` :.x.P.F.f.4.0.[ j < % o o o o o o o o . . o % % o X o . ",
". % & & o % % o o o . o . o o X o X o ^ ` <.u.u.M.`.OX].`.T.K.p.;./ W ) 2.C.F.9.2.4.[ j < o & o X o o o X o o . o . o o o o X . ",
"o % & o . . o o o .       . . . X X X o ^ %.q.u.x.J.`.[.^.J.x.q._ E U ` a.C.a.4.2.] d 1 & o % o o o o o o o o o o % o o X o X o ",
"X & % o . . o o . . . . X . . . . X o X & ^ ` q.z.n.I.`.`.s.-._ E Z W 9.a.a.9.4.] j 7 * * o * % o o X o o o o o o % % o o X o o ",
"o % o o o o o o X o X . o . o % o o & & & 4 ^ %.<.l.B.U.U.l._ H Z W 4.a.f.9.5.` k , % r & o % & o o o o X o . . . o o o . X . . ",
"% % o o X . . . . o . . . . o o X X 2 & & 4 x ^ %.<.z.n.B.y.%.H Z @.a.9.9.4._ k 7 . . . . . o o . . . . . . . . . . o . . o X . ",
"o X . . . o . . o X .   . . o o   & * & & 4 x x T %.<.l.n.n.,.@.;.9.9.9.0.[ j <                 . . .         . . . . . . . . o ",
". . . . . . . . . . o . o o & & & & 4 4 4 x x x 4 ^ %.<.l.n.n.M.j.f.9.4.[ j 8                                   .       . . . X ",
"X o . . X o % o o o . o & % % % & * 4 4 4 x x 4 t % T %.<.l.J.M.9.9.0.[ n <         o .     . .     . . . X . . . . .     . . o ",
". . . .     . . X . . X . o o o . . o X o o 4 % . . % T %.<.u.:.@.;.[ j <         . o o   o % & % o & & % % o X   .         . o ",
".         . .   . . . . . . . o . . .       . & 4 . 4 o Q { <.q.0. .k <     % .   . %     . . % & o * o o .   .       . . . o o ",
". . .   . .     . . o . o o . o . o .   X & 2 4 N 4 4 o % ( &.x.0.v w   X o 4 o   .       .   . o X . . o o o o o o o o o o & o ",
"o . X o . . . . X X o X X o o & % X o . * 4 x x x x u 2 x x / ^ k 8 o % . & u * . o . o .     o * X o . o o o % o % % X X . o % ",
". o % % o . . . . . . o o X % & & o % o * t 4 x x 4 x x t x x < + & % X % % & * o . % 4 o X . o 2 4 4 * * 4 * * % 4 % % o . o % "
};
